<?xml version="1.0" encoding="UTF-8" standalone="no"?>
<!-- Created with Inkscape (http://www.inkscape.org/) -->

<svg
   width="267.74954mm"
   height="191.53239mm"
   viewBox="0 0 267.74954 191.53239"
   version="1.1"
   id="svg1"
   xml:space="preserve"
   xmlns="http://www.w3.org/2000/svg"
   xmlns:svg="http://www.w3.org/2000/svg"><defs
     id="defs1" /><g
     id="layer1"
     transform="translate(602.66139,136.52965)"><path
       id="path461"
       style="fill:#000000;stroke-width:0.506652"
       d="m -428.63017,-136.52965 c -0.0822,0.003 -0.14798,0.0216 -0.19844,0.0512 -0.43388,0.26459 -1.7504,3.20016 -3.66851,8.18038 -1.29104,3.3522 -1.28248,3.24493 -0.79633,10.02884 0.13483,1.88022 0.41024,6.13609 0.61288,9.45782 0.0521,0.85134 1.48609,16.847167 2.52595,28.712463 h -10e-4 c 0.40037,5.09375 0.79342,10.129206 1.14515,14.667839 0.008,-5.87e-4 0.0137,-9.25e-4 0.0217,-0.0016 0.34324,4.450261 0.63241,8.242883 0.82785,10.883057 0.32412,4.380817 0.83802,12.335495 0.90744,14.071493 l 0.0346,0.867647 -0.6594,0.434599 c -1.05673,0.694378 -3.56227,1.765358 -4.9506,2.1177 -4.53956,1.151592 -9.858,0.409353 -13.43535,-1.874821 -1.21292,-0.774474 -2.67118,-2.273749 -5.19607,-5.343343 -1.26525,-1.538028 -2.43345,-2.955295 -2.59364,-3.150195 -0.61433,-0.742836 -0.69025,-0.518489 -1.73684,5.089611 l -0.96015,5.146456 1.03611,1.608688 c 3.10238,4.811706 5.44646,10.182087 6.72052,15.400093 0.21439,0.876542 0.34735,1.659496 0.29662,1.742529 -0.0505,0.08223 -0.6041,0.783401 -1.22938,1.557528 -5.40386,6.68878 -19.55114,21.8786375 -38.94181,25.3214519 -1.61581,0.2862092 -4.88293,0.2172017 -6.56601,-0.1405599 -6.26323,-1.3319143 -10.224,-5.3814274 -11.55226,-11.8059977 -0.18155,-0.8836444 -0.28724,-2.0642256 -0.33797,-3.8245727 -0.13641,-4.7605726 0.57454,-8.6409286 3.09284,-16.7421306 0.68013,-0.795392 1.31361,-1.807501 1.92236,-3.057178 1.58376,-3.251358 2.31976,-6.102586 2.31976,-8.982914 0,-4.308224 -1.46979,-7.807312 -4.52117,-10.764718 -0.5556,-0.538351 -0.93496,-1.003605 -0.84956,-1.034045 1.46522,-0.508155 13.71337,-3.274289 19.79879,-4.471562 8.97261,-1.765019 13.26238,-2.237245 20.24166,-2.215885 5.21425,0.01399 6.98023,0.130312 14.37896,0.946195 2.95238,0.32524 4.57117,0.453107 4.65657,0.367937 0.0724,-0.07222 0.92078,-2.288578 1.88567,-4.925281 1.31437,-3.591712 1.71815,-4.837831 1.60869,-4.969723 -0.0868,-0.105059 -0.618,-0.212954 -1.31724,-0.267684 -3.34,-0.261673 -9.23108,-0.923335 -11.36003,-1.275891 -9.39845,-1.556903 -16.05419,-3.624524 -28.28457,-8.786543 -4.38872,-1.852244 -11.73163,-4.815275 -14.52057,-5.859591 -3.77225,-1.412251 -5.79526,-2.002497 -7.13393,-2.081527 -1.95941,-0.116273 -6.37143,0.581974 -10.46086,1.655713 l -1.81952,0.478007 -2.39727,4.811076 c -1.58002,3.17121 -2.35308,4.856574 -2.26498,4.943884 0.0732,0.07238 1.69943,0.196281 3.61425,0.271301 6.05659,0.240982 9.63096,0.600627 13.57488,1.365809 l 2.18488,0.423746 0.85008,-0.842326 0.85059,-0.842842 0.78497,0.294039 c 0.43225,0.161474 1.81091,0.721003 3.06441,1.243335 1.25324,0.522359 5.01268,2.050224 8.35401,3.395141 5.41128,2.177433 6.02662,2.456153 5.63015,2.537313 -1.23348,0.254972 -11.31149,2.596534 -14.14849,3.287655 -11.99195,2.920482 -19.89416,5.590432 -23.99854,8.108032 l -0.56947,0.349333 v -0.339514 c 0,-0.210359 -0.12119,-0.419816 -0.32143,-0.549838 -0.76945,-0.504284 -1.5478,0.172789 -4.16667,3.622518 -3.09944,4.083235 -4.94575,6.041548 -7.50962,7.966439 -3.15925,2.371959 -5.31666,3.076422 -8.95087,2.920235 -4.25016,-0.181765 -6.94841,-1.691401 -9.28988,-5.198132 -1.08183,-1.620179 -1.79669,-3.160853 -2.60966,-5.621879 -1.10773,-3.353161 -1.7059,-6.418229 -3.21944,-16.487883 -0.43759,-2.912366 -0.95352,-6.156035 -1.14308,-7.207828 l -0.34727,-1.912545 1.29088,-1.35754 c 3.88892,-4.089936 5.6119,-7.568286 6.4425,-13.005408 0.23388,-1.529297 0.16064,-1.986959 -0.31833,-1.986959 -0.3623,0 -0.68752,0.417815 -2.03553,2.614311 -1.84354,3.00485 -2.67683,4.169031 -4.13618,5.779492 -1.47723,1.630138 -2.53033,2.679463 -2.60243,2.590023 -0.0262,-0.03225 -0.24443,-0.631264 -0.48472,-1.331702 -0.84821,-2.471385 -1.77573,-4.655955 -3.16673,-7.455359 -1.41449,-2.847035 -1.73522,-3.341539 -2.04226,-3.152779 -0.0913,0.05639 -0.7615,2.324379 -1.48931,5.040003 l -1.32343,4.937683 0.66662,1.488281 c 0.68188,1.523637 1.34842,3.096504 1.83193,4.324801 l 0.27234,0.691947 -2.35335,1.766301 c -6.84045,5.133638 -10.76562,8.617286 -13.36766,11.863358 -4.37084,5.4529 -6.56187,10.738289 -6.56187,15.818156 0.001,3.510389 1.03053,5.579885 3.30419,6.644039 1.07248,0.50108 1.95301,0.661458 3.64784,0.661458 3.17607,0 8.10976,-1.34032 11.87266,-3.225643 1.21773,-0.610411 3.51922,-2.136194 4.54391,-3.012736 1.81631,-1.553834 3.02106,-3.525184 3.98942,-6.526216 l 0.50694,-1.57148 0.37259,2.174544 c 1.63209,9.536348 3.71773,15.08789 7.2254,19.231384 1.08183,1.277983 2.1592,2.131371 3.50935,2.780709 3.62167,1.741952 8.80168,1.6803 12.10003,-0.144177 2.85488,-1.579437 6.17996,-4.860376 9.10746,-8.987049 0.72514,-1.02237 1.55916,-2.119928 1.85311,-2.439644 0.46829,-0.507567 0.54557,-0.550571 0.63097,-0.33538 0.0507,0.135309 0.10439,0.505197 0.10439,0.821655 0.005,0.316433 0.10637,1.040488 0.22118,1.608688 1.46121,7.146715 7.39068,12.803492 15.13809,14.443562 l 10e-4,-5.16e-4 c 1.71192,0.363101 2.02031,0.381253 3.08612,0.184484 0.34318,-0.06342 0.67429,-0.15522 0.99425,-0.275952 -0.50149,1.544519 -0.95436,3.085939 -1.2795,4.404383 -1.17528,4.766452 -1.55314,7.9985343 -1.44901,12.4529863 0.0801,3.4535739 0.34876,5.67455563 1.03198,8.525061 2.16312,9.0253637 7.61981,15.0377677 14.5433,16.0238277 v 0.0016 c 1.07729,0.15325 3.60516,0.05144 5.09788,-0.205672 15.92066,-3.145285 31.39146,-13.3055208 40.48021,-26.9699305 1.60805,-2.6668995 2.80381,-5.9833835 3.29747,-9.1446615 0.32625,-2.051655 0.32332,-6.152178 0,-8.269779 -0.12816,-0.83799 -0.21273,-1.543748 -0.18603,-1.570447 l 0.001,-10e-4 c 0.0475,-0.01602 0.44783,0.08169 0.90899,0.224793 2.24963,0.701373 5.87485,0.989843 8.23981,0.653707 4.98143,-0.708368 9.20298,-3.547239 10.86497,-7.305498 0.60072,-1.358506 1.53442,-4.373639 1.86655,-6.027539 0.50861,-2.540107 0.6233,-3.87805 0.70073,-8.245491 0.0403,-2.276512 -0.33164,-9.655431 -0.83715,-18.373039 0.0134,-0.0017 0.0264,-0.0026 0.0398,-0.0052 -0.83457,-14.0462 -1.91207,-30.225942 -2.16886,-34.172594 -0.33365,-5.1283 -0.57927,-8.94809 -0.62477,-9.70742 -0.31541,-5.26465 -0.65758,-10.53135 -0.76171,-11.70523 -0.24669,-2.78496 -0.13661,-2.89857 1.81436,-1.86913 5.99977,3.16587 13.28809,9.45067 20.94239,18.06143 5.88201,6.616943 8.96229,11.023917 11.92175,17.054256 4.60314,9.379467 6.67502,18.093534 6.38256,26.851591 -0.11187,3.348408 -0.54528,5.27363 -1.82831,8.134387 -2.04952,4.56955 -6.39173,9.771393 -12.12846,14.528313 -1.05553,0.875256 -2.07306,1.66689 -3.28611,2.522843 -0.85503,-9.536132 -2.15126,-18.145662 -2.74557,-18.145662 -6.7e-4,8e-5 8.4e-4,-1.06e-4 -0.005,0 l -0.005,-0.0078 h -0.001 -10e-4 -0.008 l -10e-4,0.0015 c -0.19676,0.08971 -1.14181,2.048804 -2.27893,4.727877 l -2.00763,4.730978 0.19999,1.866552 c 0.14522,1.348619 0.61642,5.269988 1.08262,10.534758 -2.5674,1.552466 -5.89572,3.49301 -10.44898,6.114355 -8.60993,4.956814 -10.172,5.940599 -9.97096,6.284371 0.34602,0.592042 5.11412,-0.198778 12.37443,-2.053104 3.50229,-0.89452 6.28296,-1.712655 8.63772,-2.599842 0.18239,2.859095 0.47579,7.389531 0.65422,10.106877 0.0841,1.283509 0.16937,2.575512 0.25374,3.870048 0.0107,-0.0027 0.0214,-0.0056 0.0331,-0.0083 0.62024,9.87686247 1.10081,18.1216095 1.16737,21.152197 0.0675,3.081475 0.79181,9.591301 -2.8851,11.58689 -1.45144,0.930527 -3.41838,1.75856 -5.90093,2.484602 -2.48155,0.700759 -5.01871,0.875916 -7.61142,0.52555 -2.58272,-0.315258 -4.96141,-1.403578 -7.13858,-3.265434 -2.15767,-1.860974 -3.5049,-4.709279 -4.04007,-8.543148 0.0499,-0.526123 0.24995,-1.201334 0.60048,-2.026749 0.35042,-0.930794 0.52555,-1.7590777 0.52555,-2.4851201 0.15084,-0.736001 0.0512,-1.2034162 -0.2992,-1.4030151 -0.31489,-0.252035 -0.8863,-0.1772544 -1.71256,0.2237589 -38.77639,19.5887543 -71.1768,20.4080363 -98.66271,13.7981243 0.83094,-0.925828 2.17775,-2.167194 4.03955,-3.723804 1.86202,-1.656596 3.15521,-3.264124 3.8809,-4.820894 0.2904,-0.825415 0.70368,-1.805976 1.2392,-2.9424562 0.50058,-1.146172 1.01787,-2.44163 1.55339,-3.8881348 0.62649,-1.5465178 1.03971,-3.0982162 1.2392,-4.655013 0.19971,-1.55634297 0.19971,-3.0579429 0,-4.5046346 -0.50057,-3.2034346 -1.01784,-5.6859783 -1.55339,-7.4476074 -0.50063,-1.861855 -1.01948,-3.363268 -1.55495,-4.504635 -0.20077,-0.436068 -0.40098,-0.95441 -0.60048,-1.554943 -0.18502,-0.585153 -0.45266,-1.052623 -0.80305,-1.403016 -0.18289,-0.280896 -0.37788,-0.440283 -0.58498,-0.440283 h -10e-4 c -0.16099,0 -0.32803,0.06328 -0.50333,0.216524 -0.29043,0.205847 -0.70367,0.77497 -1.2392,1.71049 -0.51533,0.931034 -1.44609,2.588875 -2.79259,4.971273 -1.24121,2.2778737 -2.63999,4.9681342 -4.19665,8.0713421 -1.44643,3.00418266 -2.94791,6.3686966 -4.50463,10.0924072 -1.45139,3.6213747 -2.85073,7.3986267 -4.19716,11.3326417 -5.96552,3.1797 -14.89692,9.989425 -33.80672,6.608899 -0.22134,-0.04165 -0.43524,-0.08462 -0.64389,-0.128674 -4.72844,-1.948893 -8.69685,-5.908644 -10.82828,-12.676746 -2.27029,-7.9102417 -3.3004,-15.6148184 -4.25349,-23.880713 -0.268,-2.833365 -0.54091,-5.507884 -0.81959,-8.298718 h -10e-4 -10e-4 -5.2e-4 v 0.001 h -10e-4 -10e-4 c -0.0734,-0.696594 -0.147,-1.366688 -0.21962,-2.011246 -1.32124,-11.74558 -3.22515,-22.581568 -3.96668,-22.581568 v 0.0015 c -0.16526,0.03017 -1.08905,1.962939 -2.15646,4.517037 l -1.88723,4.515487 0.75758,3.403927 c 0.85454,3.838034 1.49413,7.877731 2.19625,14.234273 -0.0304,0.01068 -0.0606,0.02391 -0.091,0.03566 0.23868,2.302677 0.48415,4.748826 0.73122,7.342704 0.0379,0.396501 0.0768,0.797027 0.11472,1.2004435 0.0107,0.00254 0.0237,0.00508 0.0341,0.00775 0.28152,3.3775629 3.61276,25.4171885 6.14123,29.5284305 0.6044,1.420527 1.45603,2.991207 2.62257,4.653463 1.1666,1.662737 2.58699,3.132952 4.24936,4.468978 1.52676,1.24178 3.52395,2.681948 6.00428,3.798217 3.97121,2.677926 9.52408,2.976475 18.10846,0.962732 3.51971,-0.830675 6.52004,-1.96912 9.00255,-3.415812 -0.22533,0.725882 -0.63819,1.449574 -1.23869,2.17041 -0.50063,0.735627 -0.23301,1.003685 0.80306,0.804086 1.14107,-0.336429 2.22933,-0.604487 3.26543,-0.804086 1.03614,-0.350366 2.74599,-0.526066 5.12837,-0.526066 0.33549,1.14094 0.80399,2.748548 1.40457,4.820895 0.72548,2.067221 1.6563,4.136326 2.79259,6.208406 1.14131,2.17738 2.54007,4.19677 4.19664,6.058545 1.65681,1.966968 3.67617,3.62429 6.05855,4.970756 1.76195,0.625815 3.78082,1.038052 6.05803,1.237651 2.38237,0.211186 4.19444,-0.201131 5.43584,-1.237651 0.41049,-0.72057 1.13432,-1.859015 2.17041,-3.415812 1.02122,-1.446532 1.79927,-3.206668 2.33474,-5.278748 0.60059,-1.962002 0.90074,-4.13392 0.90072,-6.516398 0.10999,-2.377486 -0.35191,-4.75776 -1.38803,-7.140132 15.46035,3.530199 53.61895,-0.140147 76.30232,-13.633793 -0.14925,0.620343 -0.14925,1.758949 0,3.415812 0.21012,1.551804 0.677,3.20812 1.40302,4.969722 0.72059,1.656596 1.75518,3.208295 3.10162,4.655013 1.3415,1.445918 3.20278,2.687203 5.58518,3.723804 1.35146,0.336456 3.26818,0.605003 5.75056,0.804602 2.48612,0.209585 5.02421,-0.153249 7.61194,-1.088822 2.58277,-0.825949 5.06472,-2.377674 7.44709,-4.655013 1.9529,-1.952604 3.48574,-4.705203 4.60127,-8.255827 0.86193,2.522753 2.41634,5.553369 3.7021,7.14685 3.65466,4.529395 9.73984,6.244878 18.16736,5.119584 7.25546,-0.968786 16.39798,-3.4865 22.8906,-6.302457 8.85871,-3.842146 18.24368,-9.671119 20.19049,-12.541354 0.36271,-0.53472 1.04008,-2.50794 1.88464,-5.4911377 0.72508,-2.560852 1.31775,-4.7273696 1.31775,-4.8136596 0,-0.4270712 -0.71475,0.00227 -2.4877,1.4929321 -6.98793,5.8752722 -15.91929,10.3186782 -25.8377,12.8545132 -5.03045,1.286126 -7.95116,1.120043 -11.46493,-0.653707 -3.90858,-1.973029 -9.1721,-7.750767 -11.47475,-12.5966477 -1.73391,-3.6486875 -2.61702,-8.5420878 -1.97043,-10.9161295 0.73704,-2.7060124 6.15771,-5.2097128 14.41514,-6.6559238 6.51874,-1.141687 9.68497,-2.082003 13.60227,-4.039547 4.70374,-2.35052 7.99442,-5.429334 10.94921,-10.249504 1.86493,-3.042281 3.88503,-7.711643 3.88503,-8.976196 0,-0.533279 -0.0778,-0.811425 -0.30179,-0.79375 h -0.001 c -0.34925,0.0275 -1.05204,0.774099 -2.358,2.388485 -2.4186,2.989819 -4.21062,4.69027 -6.65437,6.317444 -3.96651,2.640975 -6.44055,3.445504 -14.58723,4.741829 -9.15616,1.456971 -13.66871,3.341615 -17.86867,7.46156 -4.88262,4.789627 -7.11636,10.2657781 -7.11636,17.4464801 0,7.1977357 2.39701,13.5176629 7.40626,19.5249069 0.74561,0.894217 1.30232,1.63791 1.30638,1.737362 -5e-5,7.48e-4 1.4e-4,0.0023 0,0.0052 v 0.0016 10e-4 h -10e-4 v 0.0016 l -0.001,0.0016 h -10e-4 l -5.2e-4,0.0016 h -0.001 -10e-4 c -0.0884,-6.94e-4 -1.08555,-0.145278 -2.21589,-0.320394 -4.51378,-0.699905 -6.81932,-1.939619 -8.63151,-4.638477 -2.81284,-4.188907 -3.61509,-9.6886987 -5.2095,-35.707898 -0.15679,-1.732409 -0.58705,-6.33928 -0.98237,-10.583333 1.76243,-1.132481 3.39518,-2.46529 5.17333,-4.133081 2.10785,-1.977033 4.94414,-5.251486 6.32881,-7.308081 2.95447,-4.388133 5.33978,-10.601001 6.78511,-17.667139 0.70335,-3.439264 1.05505,-14.085935 0.60979,-18.460372 -1.33373,-13.104219 -5.7649,-24.34919 -13.65188,-34.641297 -2.63038,-3.43238 -10.66683,-11.80748 -14.3459,-14.94999 -7.24774,-6.19055 -15.33678,-11.69396 -17.01033,-11.62823 z m -53.68871,5.2e-4 c -0.003,1.3e-4 -0.007,4e-4 -0.0103,0.001 -0.22454,0.0671 -0.79121,0.66731 -1.67173,1.81746 -2.27953,2.94384 -3.87404,6.15037 -4.82451,9.64231 -0.95207,3.32932 -1.08777,6.07632 -0.42271,8.3044 l -0.003,-0.003 c 0.88266,2.95663 2.47529,4.11512 4.82503,3.43596 2.76491,-0.84878 4.0141,-3.18169 3.72122,-7.01404 -0.11749,-0.78286 -0.1602,-1.25674 -0.1602,-1.43402 -0.15672,-0.0227 -0.2851,-0.0551 -0.3545,-0.0925 -0.14658,0.0554 -0.39272,0.36274 -0.76997,0.89503 -0.54812,0.70065 -1.21232,1.16887 -2.03037,1.43506 -1.52636,0.43238 -2.53473,-0.17669 -3.04013,-1.86914 -0.53424,-1.78886 0.77479,-6.02944 3.92896,-12.75787 0.62262,-1.38753 0.9083,-2.14713 0.8816,-2.31666 -0.0234,-0.033 -0.0464,-0.0448 -0.0698,-0.0439 z m 33.21761,0 c -1.74102,0.01 -3.3289,1.77217 -4.79092,5.28701 -1.32745,4.94977 -2.1734,8.62795 -2.52956,11.1125 -0.14364,0.44253 -0.26129,0.68676 -0.29869,0.75086 -0.008,0.11561 -0.0667,0.11561 -0.16278,0 0.0187,-0.0666 -0.0215,-0.30829 -0.12558,-0.74156 -0.66373,-4.08313 -1.86635,-7.37668 -3.58841,-9.92859 -1.69299,-2.53252 -3.61648,-3.79632 -5.80016,-3.82302 l 5.2e-4,-5.2e-4 c -0.22133,0.0192 -0.76911,0.7611 -1.65417,2.23449 -0.87572,1.48332 -1.31068,2.34963 -1.33738,2.60914 0.0195,0.58753 0.55775,1.36788 1.58698,2.31149 1.07755,0.9631 1.92417,1.45194 2.54972,1.42524 0.59645,0.0192 0.943,-0.13438 1.05781,-0.42323 0.12521,-0.29849 0.38471,-0.43477 0.78858,-0.46147 0.63489,0.0191 1.68334,1.84894 3.12643,5.54694 1.48124,3.6977 2.20073,6.17223 2.17403,7.44348 0.0192,0.81909 0.17259,1.20406 0.46147,1.20406 0.37512,0 0.79815,-0.44365 1.27899,-1.34876 0.70244,-1.3097 1.32757,-3.56262 1.90479,-6.78873 1.3085,-7.37651 2.7323,-11.0725 4.24264,-11.0939 0.70218,0.0192 1.38504,0.46216 2.03915,1.35806 0.66373,0.88661 1.06902,1.33088 1.25057,1.30948 0.48084,0.0192 0.88522,-0.52031 1.22163,-1.62729 0.27846,-0.7992 0.40411,-1.46375 0.40411,-1.97404 0,-0.65489 -0.38547,-1.50195 -1.16427,-2.57142 -0.8848,-1.18421 -1.75044,-1.79952 -2.6355,-1.81022 z m -59.72039,6.51794 c -1.74102,0.01 -3.32838,1.77217 -4.7904,5.28702 -1.32745,4.94976 -2.17392,8.62847 -2.53008,11.11302 -0.14364,0.44253 -0.26129,0.68624 -0.29869,0.75034 -0.008,0.11561 -0.0667,0.11561 -0.16278,0 0.0187,-0.0666 -0.0214,-0.30829 -0.12557,-0.74156 -0.66372,-4.08312 -1.86584,-7.37668 -3.5879,-9.92859 -1.69296,-2.53252 -3.617,-3.79632 -5.80068,-3.82302 l 10e-4,-5.2e-4 c -0.22133,0.0192 -0.76962,0.7611 -1.65468,2.23449 -0.87571,1.48332 -1.31069,2.34963 -1.33739,2.60914 0.0195,0.58753 0.55775,1.36788 1.58698,2.31149 1.07756,0.9631 1.92418,1.45193 2.54972,1.42523 0.59645,0.0192 0.94302,-0.13438 1.05782,-0.42323 0.12522,-0.29849 0.38463,-0.43477 0.78858,-0.46147 0.63489,0.0191 1.68336,1.84895 3.12642,5.54695 1.48124,3.69771 2.20073,6.17273 2.17403,7.44399 0.0192,0.81908 0.17259,1.20355 0.46147,1.20355 0.37511,0 0.79867,-0.44313 1.27951,-1.34824 0.70244,-1.3097 1.32705,-3.56315 1.90428,-6.78925 1.3085,-7.37651 2.73229,-11.07198 4.24263,-11.09338 0.70217,0.0192 1.38504,0.46164 2.03915,1.35754 0.66373,0.88661 1.06901,1.3314 1.25057,1.31 0.48084,0.0193 0.88523,-0.52083 1.22163,-1.62781 0.27847,-0.7992 0.40411,-1.46375 0.40411,-1.97404 0,-0.65489 -0.38547,-1.50196 -1.16427,-2.57142 -0.88479,-1.18422 -1.75044,-1.79953 -2.6355,-1.81023 z m -30.60381,4.50722 c -0.003,1.3e-4 -0.006,9.3e-4 -0.01,0.002 -0.2248,0.0671 -0.79121,0.66731 -1.67173,1.81746 -2.27926,2.94387 -3.87431,6.14988 -4.82451,9.64179 -0.95234,3.32932 -1.08805,6.07632 -0.42272,8.3044 l -0.003,-0.003 c 0.88266,2.95663 2.47556,4.11513 4.82503,3.43597 2.76491,-0.84878 4.0141,-3.18222 3.72122,-7.01456 -0.11749,-0.78286 -0.1602,-1.25675 -0.1602,-1.43402 -0.15913,-0.0227 -0.28458,-0.0551 -0.35398,-0.0925 -0.14684,0.0554 -0.393,0.36326 -0.76998,0.89555 -0.54839,0.70066 -1.21259,1.16835 -2.03037,1.43454 -1.52663,0.43238 -2.53497,-0.17669 -3.04064,-1.86914 -0.53397,-1.78886 0.77506,-6.02945 3.92896,-12.75788 0.62288,-1.38753 0.90882,-2.14712 0.88212,-2.31665 -0.0234,-0.033 -0.0469,-0.0448 -0.0703,-0.0439 z m -25.51886,14.70557 c -0.0177,6.6e-4 -0.0327,0.003 -0.045,0.008 -0.10172,0.0392 -1.24998,1.98422 -2.55074,4.32273 l -2.36524,4.25194 -3.4401,-2.05931 c -4.51313,-2.7016 -6.2941,-3.6737 -6.6337,-3.6251 -0.22347,0.0327 -0.69562,0.93437 -2.4014,4.58938 -1.16753,2.5022 -2.10926,4.643867 -2.08256,4.757336 0.0219,0.114591 1.00485,0.747104 2.18333,1.405599 1.17901,0.658442 3.22912,1.846488 4.55631,2.640665 1.47831,0.884659 2.5337,1.439878 2.72593,1.418518 0.26085,-0.0213 0.58287,-0.508907 1.92288,-2.907832 0.88532,-1.585124 1.94087,-3.472927 2.34508,-4.195096 l 0.73587,-1.3131 1.16168,0.62684 c 0.63917,0.34465 2.87128,1.650963 4.95991,2.903182 2.08863,1.252405 3.90261,2.305532 4.03076,2.337842 0.12602,0.03444 0.29662,-0.01806 0.37672,-0.115239 0.27874,-0.343638 4.32842,-8.978195 4.32842,-9.228895 0,-0.19007 -0.95412,-0.82456 -3.78685,-2.51819 -4.15118,-2.48234 -5.66224,-3.31261 -6.02134,-3.29902 z m 94.25316,0.76739 c -0.21626,0.002 -0.55484,0.16164 -0.98495,0.32298 -1.57388,0.57504 -49.71237,18.104558 -51.56739,18.780247 -1.02549,2.172173 -1.77607,4.157351 -2.25051,5.954675 2.38579,-0.986674 52.10918,-20.038802 53.02467,-20.369812 0.49606,-0.37487 1.14721,-1.54284 1.94096,-3.48351 0.26432,-0.61776 0.3075,-0.99212 0.13075,-1.1467 -0.0374,-0.0214 -0.10129,-8.1e-4 -0.16537,-0.0331 -0.0374,-0.0187 -0.0774,-0.0265 -0.12816,-0.0238 z m 13.72216,9.99526 c -6.68747,-0.009 -6.82436,-0.002 -8.26823,0.471285 -1.93458,0.633612 -2.65734,1.401206 -4.80952,5.106148 -1.8713,3.221803 -2.21847,3.918862 -2.04225,4.095874 0.0667,0.06621 3.60719,0.13677 7.86722,0.15813 8.07909,0.03831 10.28414,0.223286 11.75897,0.985986 1.44226,0.745879 0.85138,1.178456 -8.36952,6.136577 -5.94506,3.196546 -7.84369,4.302614 -9.39167,5.468916 -0.73181,0.551327 -1.33067,1.031228 -1.33067,1.062468 0,0.509623 14.65702,-3.901003 17.13332,-5.155758 1.19743,-0.606753 4.67177,-3.89662 6.46111,-6.117973 2.80136,-3.477843 5.38055,-7.780043 5.38055,-8.974646 0,-1.284898 -1.83621,-2.221215 -5.67304,-2.892846 -1.54652,-0.270747 -3.22623,-0.336161 -8.71627,-0.344161 z m -81.83273,8.139034 c -0.71179,-0.0059 -0.9605,0.05301 -1.45469,0.343648 -0.79882,0.469602 -1.21082,0.983891 -1.81074,2.258777 -0.5289,1.124119 -1.19769,3.496542 -1.07487,3.815271 0.14257,0.372125 0.45632,0.1709 1.08934,-0.699182 0.92724,-1.274966 1.42299,-1.619368 2.31872,-1.608688 0.73155,0.0085 1.62663,0.366379 2.32079,0.928626 l 0.31833,0.257865 -0.64079,0.08578 c -2.20531,0.296248 -4.05186,1.094645 -5.0245,2.171961 -0.62101,0.68821 -1.30701,2.022751 -1.65623,3.223575 -0.16551,0.571031 -0.22745,1.251855 -0.22945,2.631881 -0.005,2.010646 0.11965,2.891465 0.88884,6.283338 2.47122,10.891491 3.58506,18.447699 3.51296,23.823868 v 2.352828 l -0.0124,0.0026 c 0.008,0.09317 0.1149,0.151154 0.23771,0.127124 0.25978,-0.05001 0.70065,-1.729383 0.92759,-3.538802 0.24294,-1.929056 0.30963,-5.23726 0.14677,-7.350456 -0.19063,-2.474642 -0.68805,-6.330484 -1.03353,-8.008813 -0.14337,-0.697449 -0.28491,-1.390696 -0.31161,-1.540475 -0.0278,-0.14994 -0.54309,-2.757036 -1.14515,-5.793444 -0.60178,-3.036381 -1.17753,-6.056711 -1.27899,-6.711735 l -0.18397,-1.190625 0.34468,-0.542603 c 0.72273,-1.137388 2.09978,-1.96334 3.88245,-2.329057 1.0869,-0.222931 3.42193,-0.260831 4.98006,-0.08061 0.59805,0.06675 0.99226,0.06265 1.03766,-0.01344 0.0416,-0.06723 0.23755,-0.836768 0.43512,-1.709973 l 0.35966,-1.5875 -0.7493,-1.071252 c -0.41223,-0.589106 -1.2783,-1.598699 -1.92547,-2.243791 -0.95421,-0.951085 -1.38805,-1.277349 -2.2934,-1.725993 -0.96996,-0.480844 -1.22963,-0.555389 -1.97559,-0.560689 z m 130.17242,0.733805 c -2.90182,0.0224 -4.77288,1.906979 -5.59087,5.675623 -0.1124,0.786248 -0.20177,1.254666 -0.25787,1.424202 0.14556,0.06675 0.25809,0.134616 0.31419,0.190686 0.15683,-0.01124 0.48167,-0.236374 0.99736,-0.640271 0.72834,-0.516111 1.50094,-0.769634 2.36368,-0.796334 1.59175,0.02248 2.38642,0.897484 2.38642,2.669605 0,1.873096 -2.4759,5.574442 -7.43934,11.137821 -0.99687,1.155063 -1.48587,1.803986 -1.51257,1.973523 0.0161,0.03764 0.0427,0.0646 0.0641,0.0646 0.23527,0 0.95211,-0.414709 2.12855,-1.267623 3.03641,-2.175965 5.49026,-4.800405 7.40626,-7.88479 1.87115,-2.927504 2.79002,-5.529563 2.79002,-7.862569 l 0.003,0.0041 c 0,-3.095626 -1.19927,-4.661903 -3.65301,-4.688603 z m -179.22885,3.230811 c -0.003,1.44e-4 -0.006,3.71e-4 -0.01,0.001 -0.2248,0.06707 -0.79122,0.66731 -1.67174,1.81746 -2.27927,2.943871 -3.8743,6.149849 -4.82451,9.641789 -0.95234,3.329292 -1.08804,6.076838 -0.42271,8.304919 l -0.003,-0.0031 c 0.88266,2.956632 2.47556,4.115125 4.82503,3.435966 2.76491,-0.848776 4.0141,-3.182212 3.72122,-7.014559 -0.11749,-0.782857 -0.1602,-1.256225 -0.1602,-1.433504 -0.15913,-0.02269 -0.28458,-0.05564 -0.35398,-0.09302 -0.14684,0.0554 -0.39299,0.363262 -0.76998,0.895553 -0.54839,0.700652 -1.21259,1.168352 -2.03037,1.434537 -1.52663,0.432384 -2.53497,-0.176166 -3.04064,-1.868619 -0.53397,-1.788834 0.77558,-6.029967 3.92948,-12.758395 0.62288,-1.387527 0.9083,-2.146601 0.8816,-2.316137 -0.0234,-0.03274 -0.0469,-0.04494 -0.0703,-0.04393 z m 219.27602,18.67948 c -0.003,1.44e-4 -0.006,3.71e-4 -0.01,10e-4 -0.22464,0.06709 -0.79132,0.667309 -1.67173,1.81746 -2.27942,2.94387 -3.87421,6.149876 -4.82452,9.641789 -0.95226,3.329319 -1.08796,6.076838 -0.42271,8.304919 l -0.004,-0.0031 c 0.88271,2.956632 2.47597,4.115125 4.82555,3.435966 2.76489,-0.848776 4.01418,-3.182212 3.72122,-7.014559 -0.11723,-0.782857 -0.1652,-1.256225 -0.1602,-1.433504 -0.15765,-0.02269 -0.28398,-0.05564 -0.35398,-0.09302 -0.14658,0.0554 -0.39284,0.363263 -0.76998,0.895553 -0.54834,0.700652 -1.21308,1.168352 -2.03088,1.434537 -1.52658,0.432384 -2.53462,-0.176166 -3.04013,-1.868619 -0.53408,-1.788861 0.77498,-6.029967 3.92896,-12.758395 0.62352,-1.387527 0.90352,-2.146601 0.88212,-2.316137 -0.0231,-0.03274 -0.0469,-0.04494 -0.0703,-0.04392 z m -24.00267,0.816487 c -0.216,0 -0.58378,0.09948 -1.11311,0.298173 -4.35091,1.589743 -15.81713,5.674646 -21.701,7.817611 -1.02544,2.172174 -1.77605,4.157351 -2.25051,5.954675 6.41263,-2.652081 18.74064,-7.809559 23.15827,-9.407178 0.49614,-0.374876 1.14722,-1.542838 1.94097,-3.483508 0.26432,-0.617753 0.30822,-0.992115 0.13126,-1.1467 -0.0387,-0.02136 -0.0932,-0.03307 -0.16537,-0.03307 z m -172.27424,0.376721 c 0.019,0.02293 0.31477,1.037113 0.65732,2.25361 1.06848,3.79334 2.19909,9.219172 2.04691,9.824723 -0.0448,0.179121 -0.47717,0.752926 -0.96015,1.274857 -2.69282,2.908335 -7.77148,5.514163 -13.26793,6.807337 -1.79308,0.421118 -5.33887,0.575475 -6.36757,0.275435 -1.04285,-0.30407 -2.27893,-1.048565 -2.27893,-1.372526 0,-0.18681 1.91148,-2.838126 3.13108,-4.342887 2.07234,-2.556367 5.38029,-5.620693 10.20713,-9.45627 3.34721,-2.659798 6.79204,-5.312869 6.83214,-5.264279 z m 211.64858,25.96224 c -0.21554,0.0023 -0.55384,0.16152 -0.98392,0.322978 -4.35091,1.589742 -29.73049,10.344645 -35.61436,12.48761 -1.02544,2.172173 -1.77604,4.157868 -2.25051,5.955192 6.41264,-2.652081 32.65348,-12.479558 37.07112,-14.077177 0.49614,-0.374876 1.14773,-1.543356 1.94148,-3.484025 0.26432,-0.617753 0.30822,-0.991599 0.13126,-1.146184 -0.0387,-0.02136 -0.10127,-7.64e-4 -0.16588,-0.03307 -0.0362,-0.01812 -0.0794,-0.02586 -0.12919,-0.02532 z m -166.3175,0.568957 c 0.66509,-0.02897 2.14402,0.153013 3.33365,0.443901 3.60618,0.881803 6.11489,2.147501 8.04654,4.060217 1.39474,1.381227 2.78672,3.681534 2.5678,4.24832 -0.0419,0.108957 -0.30568,0.262354 -0.58601,0.339514 v 10e-4 c -0.49927,0.13803 -1.31547,0.16437 -1.85105,0.05891 -0.14711,-0.02857 -0.59956,-0.117661 -1.00511,-0.194821 -1.85342,-0.355813 -4.19348,-1.336899 -5.81515,-2.437577 -1.15525,-0.784245 -2.64092,-2.248121 -3.40289,-3.353284 -0.68109,-0.988089 -1.64073,-2.778868 -1.64073,-3.062862 0,-0.0603 0.13126,-0.0937 0.35295,-0.103353 z m 52.56785,2.261361 c -0.21632,1.45e-4 -0.58433,0.09963 -1.11311,0.298173 -4.35108,1.589743 -15.81716,5.674155 -21.701,7.817094 -1.0255,2.1722 -1.77607,4.157351 -2.25051,5.954675 6.41274,-2.652081 18.74073,-7.809042 23.15828,-9.406661 0.49606,-0.374876 1.14722,-1.542838 1.94097,-3.483508 0.26432,-0.617753 0.30853,-0.992115 0.13125,-1.1467 -0.0373,-0.02131 -0.0935,-0.03301 -0.16536,-0.03307 z m -97.88498,11.241174 c -1.74128,0.0098 -3.32863,1.771876 -4.79092,5.287016 -1.32745,4.950166 -2.17418,8.629184 -2.5306,11.114051 -0.14605,0.442557 -0.25547,0.686778 -0.29817,0.750858 -0.008,0.115605 -0.0667,0.115605 -0.16278,0 0.0187,-0.06664 -0.0215,-0.308247 -0.12557,-0.742073 -0.664,-4.083448 -1.86634,-7.376935 -3.58841,-9.92911 -1.69322,-2.532765 -3.61726,-3.796323 -5.8012,-3.823023 l 10e-4,-5.16e-4 c -0.22133,0.0192 -0.77013,0.760448 -1.65519,2.233972 -0.87572,1.483509 -1.31017,2.350666 -1.33687,2.610176 0.0192,0.58753 0.558,1.367771 1.5875,2.311487 1.07756,0.963046 1.92365,1.451936 2.5492,1.425236 0.59644,0.01925 0.94353,-0.134351 1.05833,-0.42323 0.12522,-0.298544 0.38438,-0.435287 0.78806,-0.461987 0.63516,0.01917 1.68389,1.849278 3.12695,5.547465 1.4815,3.6980795 2.20072,6.1732518 2.17402,7.4445068 0.0192,0.8192206 0.17311,1.2040608 0.46199,1.2040608 0.37512,0 0.79815,-0.443618 1.27899,-1.3487548 0.70244,-1.3098078 1.32782,-3.5628816 1.90531,-6.7892498 1.3085,-7.376991 2.7323,-11.06823 4.24264,-11.09493 0.70217,0.01936 1.38477,0.462025 2.03915,1.358057 0.66373,0.886662 1.06635,1.336697 1.25057,1.309997 0.48057,0.01917 0.88574,-0.520721 1.22215,-1.627807 0.27846,-0.79925 0.40359,-1.463696 0.40359,-1.97404 0,-0.654891 -0.38495,-1.501845 -1.16375,-2.571419 -0.88506,-1.184431 -1.75096,-1.805443 -2.63602,-1.810743 z m 93.84285,1.971973 c -0.13723,0.05713 -0.40803,0.361784 -0.81545,0.925525 -0.60152,0.834412 -0.86868,1.794318 -0.86868,2.85719 0,1.877074 1.02452,4.581327 3.04374,8.097697 -0.24376,1.009555 -0.89149,1.497583 -1.93167,1.497583 -2.3735,0 -3.56929,-1.485393 -3.56929,-4.47983 0,-1.00774 -0.24361,-2.611984 -0.75809,-4.806425 -0.5257,-2.156287 -0.91861,-3.248122 -1.26142,-3.272152 -0.1714,0.01909 -0.41537,0.399903 -0.79582,1.169438 -0.35536,0.761899 -0.51849,1.306194 -0.54519,1.649512 0.0192,0.419115 0.26664,1.432502 0.71624,3.047876 0.50754,1.642019 0.72381,2.79273 0.69711,3.455603 0.0192,1.177276 -0.41487,2.186443 -1.28364,3.05511 -0.86851,0.86872 -1.79461,1.295529 -2.80034,1.295529 -0.7732,0 -1.41694,-0.545044 -1.93115,-1.642277 -0.43332,-0.940993 -0.63631,-1.912056 -0.66301,-2.955892 0.0374,-0.491495 0.0745,-1.063378 0.15193,-1.741496 0.0881,-0.662927 0.14194,-1.497068 0.11524,-2.510441 0.0152,-1.878221 -0.22862,-2.83316 -0.74311,-2.85719 -0.36176,0.01904 -0.92227,0.434125 -1.66502,1.241785 -0.78895,0.952447 -1.18097,1.912468 -1.20767,2.864941 0.0192,0.632357 0.26663,0.997868 0.71623,1.150317 0.48859,0.156214 0.70521,0.411158 0.67851,0.754476 v 4.433838 c 0.0189,1.885057 0.43433,3.3823638 1.26866,4.5253053 0.76198,0.9828831 1.6301,1.4707112 2.60914,1.4707112 2.6752,0 4.51934,-1.7764504 5.49838,-5.3500615 0.87972,2.8211638 2.38465,4.2343674 4.48396,4.2343674 1.34081,0 2.43834,-0.9791938 3.27267,-2.9450404 0.60927,-1.531514 0.95239,-3.009529 0.95239,-4.434354 l 0.007,-0.0036 c 0,-0.750578 -0.30853,-1.866761 -0.93328,-3.325895 -1.01721,-2.442016 -1.53793,-3.706095 -1.56993,-3.782715 -0.25871,-0.643837 -0.41075,-1.478436 -0.52555,-2.522326 -0.0764,-0.71611 -0.19095,-1.073061 -0.34313,-1.097091 z m 45.65406,11.336776 c -5.15352,-0.0068 -5.25903,-0.0011 -6.3717,0.363285 -1.49085,0.488264 -2.04769,1.079519 -3.70624,3.934644 -1.44212,2.4828113 -1.70995,3.0204831 -1.57406,3.156913 0.0514,0.050995 2.77979,0.1054206 6.06268,0.1214396 6.22588,0.029529 7.92542,0.1718999 9.06198,0.7596435 1.11144,0.5747946 0.65612,0.9085602 -6.44974,4.7294271 -4.58138,2.46334864 -6.04488,3.3154306 -7.2378,4.2142131 -0.56395,0.424882 -1.02526,0.7945257 -1.02526,0.8185547 v 5.167e-4 c 0,0.3927367 11.29502,-3.00645675 13.20333,-3.97340085 0.92276,-0.46757295 3.60012,-3.00260525 4.97902,-4.71444095 2.1588,-2.6801148 4.14652,-5.9957789 4.14652,-6.9163739 0,-0.990172 -1.41505,-1.711741 -4.37182,-2.229321 -1.1918,-0.208514 -2.48614,-0.2598 -6.71691,-0.2651 z m 66.15565,4.196643 c -0.003,1.44e-4 -0.006,3.71e-4 -0.01,0.001 -0.22464,0.06709 -0.79133,0.6673105 -1.67174,1.8174606 -2.27943,2.9438705 -3.87472,6.1503923 -4.82503,9.64230547 -0.95223,3.32931853 -1.08741,6.07632233 -0.42219,8.30440263 l -0.004,-0.0031 c 0.88271,2.9566333 2.47545,4.1151263 4.82503,3.4359663 2.76489,-0.848776 4.01418,-3.1816952 3.72122,-7.0140425 -0.11723,-0.7828571 -0.1652,-1.2567421 -0.1602,-1.434021 -0.15765,-0.022694 -0.28398,-0.05564 -0.35398,-0.093018 -0.14658,0.0554 -0.39284,0.3632621 -0.76998,0.8955526 -0.54834,0.700652 -1.21257,1.1683524 -2.03037,1.4345377 -1.52658,0.4323842 -2.53513,-0.1761672 -3.04064,-1.8686198 -0.53408,-1.7888613 0.7755,-6.029967 3.92948,-12.7583943 0.62352,-1.3875276 0.903,-2.1466017 0.8816,-2.3161377 -0.0231,-0.03274 -0.0464,-0.04494 -0.0698,-0.04393 z m -171.08206,4.3837117 c 0.24617,0.2290742 0.53982,0.8968355 0.88057,2.001945 0.3753,1.1360531 0.7379,2.3773386 1.0883,3.72380366 0.2507,1.34630486 0.45201,2.63998414 0.60152,3.88141684 0.19944,1.15565 0.29972,1.9348148 0.29972,2.3357747 0.34916,0.8404994 0.42292,1.4599085 0.22324,1.8608684 -0.20078,0.3355751 -0.40047,0.6034528 -0.59996,0.8030517 -0.83065,0.8260288 -1.91946,1.706723 -3.26595,2.642216 -1.24112,0.831422 -2.48243,1.660738 -3.72381,2.486153 -1.24117,0.740406 -2.37972,1.31108 -3.41581,1.71204 -1.0212,0.40096 -1.79925,0.700088 -2.33474,0.899687 0.10519,-1.341392 0.72507,-3.100004 1.86139,-5.277197 0.73079,-1.6616428 1.71813,-3.8888465 2.95951,-6.6817629 1.34481,-2.8919684 3.15263,-6.3551691 5.42602,-10.3879964 z m -18.47587,4.4529581 c -0.21633,1.447e-4 -0.58433,0.099627 -1.11311,0.2981731 -4.35108,1.58974286 -15.81716,5.6741287 -21.70101,7.8170939 -1.02549,2.1721734 -1.7758,4.1573502 -2.2505,5.9546752 6.41274,-2.652081 18.74071,-7.8090419 23.15827,-9.4066609 0.49632,-0.3748754 1.14722,-1.5428387 1.94097,-3.48350831 0.26432,-0.61775279 0.30801,-0.99211489 0.13074,-1.14669999 -0.0373,-0.021305 -0.093,-0.033014 -0.16485,-0.033073 z m 11.03395,33.9700192 c 0.82568,0.150847 2.06696,0.326468 3.7238,0.526066 1.76198,0.310559 3.57403,0.828901 5.43585,1.554944 1.96193,0.725188 3.82323,1.606729 5.58518,2.64325 1.86175,1.13616 3.51913,2.481903 4.97076,4.038513 0.40027,0.735467 0.40027,1.304362 0,1.705322 l -0.008,-0.106453 c -0.22534,0.185555 -0.63864,0.454209 -1.2392,0.804602 -0.62048,0.335548 -1.39423,0.602936 -2.32027,0.802535 -0.82566,0.199706 -2.01674,0.199706 -3.57343,0 -1.4464,-0.210385 -2.94794,-0.728648 -4.50463,-1.554944 -1.76185,-1.035827 -3.16106,-2.226444 -4.19716,-3.572909 -0.93103,-1.24162 -1.75932,-2.330457 -2.48512,-3.26595 z m 88.91137,0.232544 -1.5012,2.658236 c -0.82547,1.462257 -1.91172,3.413098 -2.41536,4.335136 -0.5037,0.922037 -0.95099,1.676383 -0.99477,1.676383 -0.0433,0 -1.22809,-0.694112 -2.63137,-1.542541 -4.33671,-2.621805 -7.03795,-4.103442 -7.36079,-4.036963 -0.35525,0.07315 -4.44037,8.7128 -4.34185,9.181868 0.036,0.170605 2.06153,1.463059 4.5005,2.872693 2.439,1.409661 4.58,2.573574 4.75888,2.586923 0.20691,0.01602 1.17521,-1.504137 2.66961,-4.186308 l 2.34559,-4.208012 1.2237,0.68833 c 0.67334,0.378506 2.97561,1.731758 5.117,3.008085 2.14131,1.276328 3.96197,2.252427 4.0442,2.16886 0.30733,-0.310264 4.4593,-9.23696 4.36665,-9.387541 -0.10893,-0.17621 -6.124,-3.796669 -8.33902,-5.019332 z" /></g></svg>
