<?xml version="1.0" encoding="UTF-8" standalone="no"?>
<!-- Created with Inkscape (http://www.inkscape.org/) -->

<svg
   width="77.037933mm"
   height="86.254944mm"
   viewBox="0 0 77.037933 86.254944"
   version="1.1"
   id="svg1"
   xml:space="preserve"
   xmlns="http://www.w3.org/2000/svg"
   xmlns:svg="http://www.w3.org/2000/svg"><defs
     id="defs1" /><g
     id="layer1"
     transform="translate(3668.0742,-598.38829)"><path
       id="path998"
       style="fill:#000000;stroke-width:0.368205"
       d="m -3627.7894,598.38828 c -0.156,0.0257 -1.3236,3.31936 -1.2242,3.45664 0.05,0.0693 0.2084,0.27299 0.3514,0.4532 0.2294,0.28916 0.278,0.48834 0.4154,1.69189 0.2132,1.86813 0.2421,2.13931 0.3111,2.9223 l 0.06,0.68213 -0.5721,0.0124 c -1.4504,0.0319 -3.1719,1.26295 -4.44,3.17448 -1.1827,1.78278 -1.7707,3.17067 -2.0702,4.88808 -0.2172,1.24579 -0.1729,1.98808 0.1928,3.23132 0.054,0.18349 -0.074,0.24217 -1.5307,0.70229 -1.844,0.58248 -3.557,1.04652 -5.5045,1.49138 l -1.3824,0.31574 -0.5658,1.61644 c -0.3113,0.88902 -0.5664,1.65804 -0.5664,1.70894 0,0.0509 0.2709,0.1603 0.602,0.2434 0.7148,0.17937 0.8122,0.25131 0.4604,0.33951 -0.5601,0.14056 -2.5462,1.15104 -3.6189,1.90738 -2.7457,1.93577 -4.9364,4.54022 -5.9644,5.60844 -3.1268,3.24905 -3.741,3.74194 -5.1077,4.09794 -1.7367,0.45234 -2.854,-0.10355 -3.3657,-1.67483 -0.6652,-2.04237 -0.361,-3.95968 1.1813,-7.45381 0.4801,-1.0878 0.8814,-2.04412 0.8919,-2.12442 0.031,-0.23934 0,-0.35126 -0.078,-0.3514 -0.2184,-3.8e-4 -0.8098,0.8561 -1.5084,2.25154 -1.4487,2.8939 -1.9712,5.9948 -1.3938,8.27082 0.5126,2.02068 1.519,3.32882 2.9068,3.77858 1.283,0.4158 2.8786,0.0901 4.1161,-0.84026 0.3771,-0.28352 1.3606,-1.23353 2.1849,-2.1115 1.4533,-1.54807 7.2182,-7.91513 11.5682,-8.66614 2.0221,-0.34912 2.7025,-0.36228 4.9005,0.52607 1.0108,0.40852 1.553,0.58276 1.5777,0.50746 0.056,-0.17247 0.5354,-3.45945 0.5354,-3.67419 0,-0.27099 -1.0131,-1.26044 -1.7937,-1.75235 l -0.6729,-0.42426 1.7937,-0.601 c 0.9864,-0.33048 1.9975,-0.68097 2.2474,-0.77877 0.4535,-0.17741 0.4561,-0.1771 1.3152,0.0806 1.2555,0.37659 1.9799,0.47884 3.3455,0.47284 2.4545,-0.0109 4.992,-0.69614 6.735,-1.81901 1.9014,-1.22496 2.7406,-2.88723 2.7528,-5.45238 0.01,-1.32127 -0.1567,-2.04014 -0.6299,-2.78381 -0.3841,-0.60372 -0.8238,-0.89508 -2.8179,-1.86655 -2.7037,-1.3172 -3.1954,-1.71963 -3.5507,-2.90887 -0.1833,-0.61386 -0.4029,-1.95719 -0.4982,-3.04323 l -0.067,-0.76274 0.496,0.25167 c 0.5982,0.30305 0.7948,0.31689 0.7948,0.0558 0,-0.23577 -2.6934,-5.64979 -2.8106,-5.64979 z m -6.3774,2.11667 c -0.1926,-10e-4 -0.3137,0.2467 -0.7033,1.04231 l -0.5028,1.0263 -0.3029,-0.25425 c -0.5577,-0.46883 -1.8518,-1.33253 -2.3543,-1.57097 -0.1158,-0.0545 -0.2534,-0.0829 -0.3054,-0.063 -0.09,0.0347 -1.354,2.5599 -1.354,2.70578 0,0.0674 2.4528,1.80555 2.8278,2.00401 v 5.2e-4 c 0.1714,0.0901 0.1953,0.091 0.2883,0.007 0.056,-0.0503 0.3159,-0.52226 0.5783,-1.04851 0.2623,-0.52626 0.4878,-0.96681 0.4878,-0.97721 0.011,-0.0203 1.6402,1.07955 2.3911,1.61386 0.2137,0.152 0.4257,0.27647 0.4707,0.27647 0.045,0 0.1366,-0.0762 0.2026,-0.16898 0.1965,-0.27587 1.0325,-1.96326 1.1385,-2.29805 l 0.098,-0.30955 -0.3054,-0.28112 c -0.3358,-0.30874 -1.8564,-1.34421 -2.3161,-1.57716 -0.149,-0.0755 -0.2514,-0.12714 -0.339,-0.12764 z m 4.9826,10.59263 c 0.1585,-0.002 0.2735,0.0559 0.3814,0.17105 0.5953,0.63575 1.0086,2.64777 0.7069,3.44114 -0.2989,0.78624 -1.9109,2.3177 -3.116,2.96002 -0.3095,0.16497 -0.6151,0.30024 -0.6786,0.30024 -0.1844,0 -1.2675,-1.08213 -1.528,-1.52652 -0.3559,-0.60711 -0.4467,-1.00248 -0.3096,-1.34772 0.5032,-1.26757 2.1555,-2.93898 3.6365,-3.67833 0.4275,-0.21344 0.7036,-0.31687 0.9074,-0.31988 z m 2.9957,1.23765 0.5328,0.34417 c 0.2929,0.18927 1.2781,0.70631 2.189,1.14877 2.3035,1.11896 3.2943,1.90369 3.3822,2.67942 0.024,0.21534 -0.066,0.29009 -0.8009,0.66042 -0.9806,0.49444 -2.8627,1.1157 -4.2313,1.3963 -0.9999,0.20504 -3.4574,0.36487 -3.5827,0.23306 -0.038,-0.04 0.1231,-0.34238 0.3581,-0.67179 0.854,-1.19679 1.463,-2.71269 1.9358,-4.8209 z m 14.7314,10.83655 c -0.013,-2e-5 -0.024,0.006 -0.035,0.0181 -0.055,0.0641 -0.4047,0.85102 -0.7757,1.74821 l -0.6743,1.63091 0.3281,1.1715 c 0.2728,0.97327 0.3842,1.91408 0.6609,5.56607 0.1832,2.41719 0.7286,9.23886 1.2119,15.15928 0.1444,1.76984 0.2862,3.52681 0.4154,5.15059 -0.984,0.84261 -2.2176,2.05567 -4.2865,4.13567 -5.688,5.71836 -6.8309,6.52867 -9.2356,6.54637 -1.3036,0.01 -1.9198,-0.22526 -2.5518,-0.97307 -0.5758,-0.68118 -0.9127,-1.58693 -1.0139,-2.67735 3.1284,-0.42097 4.8745,-0.64403 6.3831,-0.82218 1.183,-0.1397 2.2413,-0.29034 2.3518,-0.33434 0.4045,-0.1615 1.0802,-1.33959 1.5208,-2.65049 0.2261,-0.6742 0.2442,-0.79204 0.2331,-1.56734 -0.01,-0.6866 -0.047,-0.95121 -0.2083,-1.45831 -0.8796,-2.7709 -3.7989,-4.77386 -8.0171,-5.50096 -0.7155,-0.12335 -1.4621,-0.20539 -2.3301,-0.24133 -2.3926,-0.099 -5.7048,0.15143 -11.8086,0.84543 -4e-4,-0.003 0,-0.007 0,-0.0103 -0.1613,0.0188 -0.3207,0.0375 -0.478,0.0558 -0.9375,0.0744 -1.8241,0.13427 -2.7838,0.19223 -1.8908,0.1142 -6.4855,0.0484 -7.6166,-0.10904 -2.7551,-0.3834 -4.2706,-0.96265 -4.4157,-1.68775 -0.035,-0.1741 0.01,-0.28601 0.2315,-0.57981 0.7693,-1.02048 2.3898,-2.5942 4.2318,-4.17649 0.4846,-0.41621 2.6408,-1.96207 3.1383,-2.28823 1.9271,-1.2636 4.2743,-2.5112 5.7805,-3.0732 1.5587,-0.5817 2.3093,-0.63185 2.9482,-0.19585 0.1973,0.1346 0.4356,0.35693 0.5296,0.49403 0.383,0.559 0.5492,0.48753 1.0031,-0.43357 1.1406,-2.3138 1.0088,-3.48071 -0.4481,-3.96461 -0.148,-0.0492 -0.3285,-0.0802 -0.5317,-0.0941 -0.1525,-0.0104 -0.3178,-0.0116 -0.492,-0.003 h -5e-4 v 5.2e-4 c -0.5227,0.0261 -1.1255,0.13687 -1.7012,0.32298 -2.1115,0.68259 -4.9018,2.22073 -7.6527,4.11964 -2.0729,1.4309 -3.8434,3.10848 -4.191,3.45664 -1.2478,1.2495 -1.9964,2.15959 -2.6438,3.21479 -1.2139,1.9784 -2.0592,4.43766 -1.9673,5.72316 0.1672,2.3374 2.6965,3.20446 9.3757,3.20446 1.5343,5.3e-4 2.5021,-0.0259 4.8245,-0.2372 0,0.0101 3e-4,0.0199 0.01,0.03 0.9754,-0.10111 1.9895,-0.20556 2.9869,-0.308 0,0.0206 -2e-4,0.0414 0.01,0.062 1.5717,-0.15945 2.839,-0.28649 3.4618,-0.34572 4.9956,-0.4751 7.5729,-0.56892 9.7411,-0.30076 -0.7489,1.37718 -1.6721,3.61119 -2.0991,5.21726 -2.2824,0.28509 -5.0101,0.6381 -8.1892,1.05885 -0.4745,0.0628 -0.9388,0.12397 -1.3937,0.18396 0,-0.006 0,-0.0109 0,-0.0165 -1.1551,0.15051 -2.2393,0.29079 -3.2608,0.42168 v 5.1e-4 5.2e-4 5.2e-4 l 5e-4,5.1e-4 c -6.2109,0.42959 -15.0711,1.86468 -20.2572,-2.3921 -0.9766,-0.8351 -1.4783,-1.58948 -1.9156,-2.88148 -0.617,-1.82311 -0.964,-3.97193 -1.1875,-7.86256 -0.012,-0.20639 -0.023,-0.41766 -0.035,-0.63407 l -6e-4,5.1e-4 v 0 c -0.2074,-5.46431 -0.7029,-9.89775 -1.3002,-12.56099 -0.3776,-1.6834 -1.0063,-3.32364 -1.295,-3.37964 -0.01,-9.9e-4 -0.01,-0.002 -0.015,-0.002 0,-4e-5 -0.01,1.4e-4 -0.01,0 h -5e-4 c 0,-2.5e-4 -0.01,-4.8e-4 -0.01,-5.2e-4 h -5e-4 c 0,0 -0.01,-2.5e-4 -0.01,0 v 0 c -0.1578,0.0154 -0.356,0.51271 -0.7751,1.81384 -0.4622,1.4349 -0.4709,1.53117 -0.2021,2.23087 0.4063,1.0579 0.9057,3.36535 1.1457,5.29425 0.6075,4.88154 0.6666,15.73505 2.2169,18.77457 0.7461,1.463 1.7844,2.57644 3.2613,3.49694 0.6313,0.3935 2.4684,1.25043 3.1802,1.48363 0.8938,0.29278 2.1216,0.52493 3.8514,0.72089 v 0.0506 c 0.1292,0.01 0.2602,0.0193 0.3933,0.0289 v 5.2e-4 c 0.2236,0.0162 0.4983,0.0304 0.8097,0.0429 0.2769,0.0256 0.5646,0.0511 0.8635,0.0755 v -0.0475 c 1.9494,0.0495 4.5895,0.0425 5.6178,-0.0331 1.5338,-0.11246 5.7701,-0.64227 9.3638,-1.10949 v 0.0134 c 0.757,-0.10123 1.3372,-0.17954 1.6521,-0.22273 2.9774,-0.4085 5.309,-0.72696 7.1866,-0.98082 0.019,0.72591 0.077,1.40546 0.1747,1.86449 0.2297,1.08416 0.8155,2.36173 1.4226,3.10265 0.5565,0.67914 1.6051,1.39374 2.4991,1.70274 h 5e-4 c 0.9143,0.31585 2.1934,0.30543 3.0773,-0.0253 1.6399,-0.61354 3.8358,-2.52015 7.459,-6.47558 1.4053,-1.5341 2.5689,-2.71511 3.682,-3.67419 0.1571,2.02417 0.2681,3.50904 0.2992,4.02818 0.068,1.1374 0.1591,2.12756 0.2041,2.19986 0.1498,0.24243 0.3091,-0.004 0.5586,-0.86506 0.6002,-2.07046 0.8434,-3.03869 0.6889,-6.7169 1.6996,-1.16155 3.5165,-1.96553 6.1298,-2.87631 3.3633,-1.17218 3.6348,-1.35145 4.4189,-2.91714 0.9384,-1.87374 1.149,-4.68114 0.5317,-7.08949 -0.4463,-1.74099 -1.8879,-4.57382 -2.1657,-4.25607 -0.025,0.0288 -0.1915,0.88318 -0.37,1.89911 l -0.3246,1.84743 0.2966,0.51367 c 0.4878,0.84524 1.168,2.60863 1.3917,3.60804 0.2957,1.32146 0.3829,1.24825 -2.8572,2.38022 -2.3375,0.81664 -4.8154,1.85986 -6.0983,2.56729 -0.4335,0.23903 -0.8106,0.45438 -1.1659,0.67541 -0.1562,-2.27265 -0.3846,-5.20253 -0.6878,-9.07128 l -0.9968,-12.72171 0.3886,0.49144 c 0.2138,0.27016 0.5709,0.6922 0.7938,0.93793 0.3646,0.40195 0.4146,0.42278 0.4976,0.20774 0.1229,-0.31824 -0.4847,-2.49121 -1.5188,-5.43016 -0.929,-2.64035 -1.2807,-3.51016 -1.4335,-3.51038 z m -8.1514,9.03253 c -0.6522,0.004 -1.247,0.66363 -1.7947,1.98024 -0.4972,1.85409 -0.8139,3.23234 -0.9473,4.16305 -0.054,0.16576 -0.096,0.25712 -0.1121,0.28112 0,0.0433 -0.025,0.0433 -0.061,0 0.01,-0.025 -0.01,-0.11553 -0.047,-0.27802 -0.2487,-1.52946 -0.6991,-2.76323 -1.3441,-3.71915 -0.6341,-0.94845 -1.3547,-1.42176 -2.1725,-1.43196 h -5e-4 c -0.083,0.008 -0.2882,0.2858 -0.6191,0.83664 -0.3279,0.55565 -0.4913,0.88052 -0.5013,0.97772 0.01,0.22006 0.2092,0.51211 0.5948,0.86558 0.4036,0.36071 0.7207,0.54382 0.955,0.53382 0.2234,0.007 0.3534,-0.0499 0.3964,-0.15813 0.047,-0.11182 0.1439,-0.16312 0.2951,-0.17312 0.2379,0.007 0.631,0.69275 1.1715,2.07791 0.5549,1.38512 0.8239,2.31231 0.8139,2.78846 0.01,0.30684 0.065,0.45062 0.1731,0.45062 0.1405,0 0.2989,-0.16586 0.479,-0.50488 0.2631,-0.49059 0.4975,-1.33455 0.7137,-2.54299 0.4901,-2.76306 1.0233,-4.14582 1.589,-4.15582 0.263,0.007 0.5187,0.1734 0.7638,0.50901 0.2486,0.3321 0.4007,0.50041 0.4687,0.49041 0.18,0.007 0.3313,-0.19512 0.4573,-0.60978 0.1043,-0.29936 0.1514,-0.54834 0.1514,-0.73949 0,-0.24529 -0.1444,-0.56212 -0.4361,-0.96273 -0.3315,-0.44363 -0.6555,-0.67651 -0.987,-0.67851 z m -5.5806,19.89232 c 0.1547,0.026 0.3084,0.0544 0.462,0.0842 2.0243,0.3937 3.5594,1.18842 4.5972,2.38022 0.5368,0.6165 1.0748,1.36136 1.0748,1.48776 0,0.1544 -0.2507,0.21944 -1.0573,0.27544 -1.1971,0.0829 -3.5066,0.33523 -6.9566,0.76068 0.3197,-1.31349 0.8422,-2.75603 1.5652,-4.29535 0.1215,-0.25857 0.2262,-0.48897 0.3147,-0.69298 z m 27.0723,1.31827 c -0.085,0 -1.6944,3.50589 -1.6454,3.58479 0.024,0.0392 0.643,0.37435 1.3746,0.74466 0.7316,0.37032 1.5209,0.78522 1.7544,0.92242 0.2334,0.13716 0.4755,0.24368 0.5375,0.23668 0.062,-0.007 0.4739,-0.79358 0.9157,-1.74718 0.6529,-1.40954 0.783,-1.75391 0.694,-1.84071 -0.1119,-0.10916 -3.5338,-1.90066 -3.6308,-1.90066 z m -7.4642,2.56366 v 5.2e-4 c -0.058,0.058 -0.09,1.01857 -0.07,2.13424 l 0.035,2.0283 0.4052,0.0393 c 0.3294,0.0319 0.5758,0.23843 1.3187,1.10381 1.7286,2.01372 3.6698,3.50762 6.0467,4.65346 0.8408,0.40531 2.0969,1.00689 2.7916,1.33687 1.2786,0.60737 2.3702,1.50778 2.5626,2.11409 0.128,0.40309 -0.38,0.85716 -2.6153,2.33887 -5.54,3.67235 -13.1518,8.05811 -15.1516,8.73022 -3.0837,1.03649 -5.3884,-0.23543 -5.6921,-3.14141 -0.084,-0.80703 0.01,-1.79793 0.2418,-2.84634 1.2155,0.73934 2.8657,1.46895 4.3259,1.8774 0.7654,0.21408 1.5312,0.38913 1.7017,0.38913 0.1431,0 0.2183,0.0161 0.2418,0.0646 0.1363,-0.0103 0.2731,-0.0133 0.4093,-0.0243 0.1626,-0.0192 0.3243,-0.0461 0.4868,-0.0667 0.062,-0.008 0.1251,-0.0168 0.1876,-0.0243 0.033,-0.0682 0.066,-0.13604 0.1002,-0.2036 1.0759,-2.14348 1.317,-2.94396 1.325,-4.39508 0.01,-1.48431 -0.2236,-2.50291 -0.8723,-3.83026 -0.8612,-1.76194 -2.0309,-2.69129 -3.2412,-2.57504 -1.4534,0.13966 -2.8109,1.27851 -4.809,4.0349 -0.02,0.0275 -0.1243,-0.0233 -0.2325,-0.11317 -0.2907,-0.24124 -0.573,0.0703 -1.3653,1.50585 -0.8177,1.48163 -2.1051,2.84646 -3.1703,3.36104 -1.8801,0.90829 -4.3395,0.66407 -5.671,-0.56328 -0.7508,-0.69213 -1.0064,-1.40178 -0.8739,-2.42672 0.056,-0.43696 0.1087,-1.08111 0.1137,-1.43144 l 0.01,-0.63717 -0.5095,0.0124 c -0.3815,0.009 -1.3103,0.411 -3.6949,1.59939 -4.3909,2.18826 -7.5328,3.31212 -11.9103,4.25969 -7.7308,1.67347 -13.476,1.58267 -17.0626,-0.26975 -2.6805,-1.38445 -4.2116,-3.8448 -4.2116,-6.7691 0,-1.4155 0.2309,-2.57973 0.8268,-4.17081 0.5035,-1.3442 0.5263,-1.47725 0.2538,-1.47742 h -6e-4 c -0.4723,0.002 -1.5177,2.24321 -2.0613,4.41988 -0.299,1.19717 -0.3435,1.62519 -0.3385,3.28714 0.01,2.17447 0.2237,3.23199 0.9989,4.84363 1.0324,2.14646 2.7801,3.57015 5.4529,4.44262 3.3988,1.10948 8.4499,1.02602 14.6906,-0.24339 5.0114,-1.01933 8.8413,-2.36182 13.04,-4.57027 1.8985,-0.99857 2.8921,-1.43644 3.0045,-1.32395 0.035,0.0354 0.1187,0.54044 0.185,1.12242 0.1838,1.61074 0.4361,2.22424 1.2598,3.06492 0.6014,0.61369 0.8526,0.7713 1.5875,0.99581 0.5415,0.16541 1.223,0.26717 1.7927,0.26717 2.6642,0 4.5544,-1.43832 5.8797,-4.4726 0.2569,-0.58808 0.4891,-1.09364 0.5163,-1.12344 l 5e-4,-5.2e-4 c 0.031,-0.0249 0.2089,0.0937 0.3979,0.2682 0.1273,0.11756 0.2743,0.23888 0.4382,0.36173 -0.1172,0.3875 -0.2198,0.74944 -0.2914,1.03508 -0.3627,1.44653 -0.3915,4.36085 -0.056,5.61568 0.5211,1.94677 1.6928,3.46495 2.9972,3.88349 v -5.2e-4 c 0.9421,0.30224 3.0615,0.19411 4.0442,-0.20671 2.7409,-1.11795 15.1471,-8.55062 16.8114,-10.07173 1.7928,-1.63856 2.5367,-5.51429 1.4733,-7.67447 -0.7147,-1.45175 -1.7409,-2.27249 -4.2551,-3.40341 -2.118,-0.95265 -3.7561,-1.82276 -4.5775,-2.43138 -0.4019,-0.29772 -0.7312,-0.57466 -0.7322,-0.61546 v -0.001 c 1e-4,-6.8e-4 2e-4,-0.003 5e-4,-0.004 l 5e-4,-5.2e-4 c 0.027,-0.0354 0.3293,-0.0412 0.6956,-0.0109 0.8504,0.0705 1.0596,-0.18372 0.5607,-0.68265 -0.4657,-0.46572 -5.6262,-3.50965 -5.7465,-3.38946 z m -43.6634,11.04998 c -0.1927,-10e-4 -0.3143,0.24721 -0.7039,1.04283 l -0.5023,1.02629 -0.3028,-0.25425 c -0.5577,-0.46883 -1.8519,-1.33252 -2.3544,-1.57096 -0.1157,-0.0545 -0.2534,-0.0835 -0.3054,-0.0636 -0.09,0.0347 -1.3539,2.55989 -1.3539,2.70577 0,0.0674 2.4527,1.80607 2.8277,2.00453 v 5.2e-4 c 0.1715,0.0901 0.1964,0.091 0.2884,0.007 0.056,-0.0503 0.316,-0.52226 0.5783,-1.04851 0.2623,-0.52626 0.4778,-0.9668 0.4878,-0.9772 0.011,-0.0203 1.6401,1.07954 2.391,1.61385 0.2137,0.152 0.4258,0.27647 0.4708,0.27647 0.045,0 0.1361,-0.0762 0.2021,-0.16898 0.1965,-0.27587 1.0329,-1.96326 1.1389,-2.29805 l 0.098,-0.30954 -0.3054,-0.28112 c -0.3358,-0.30874 -1.8564,-1.34422 -2.3162,-1.57717 -0.1489,-0.0755 -0.2509,-0.12766 -0.3384,-0.12815 z m 37.3631,2.44739 c 0.8713,0 1.3086,0.39139 2.0164,1.80454 0.3386,0.67591 0.5963,1.34713 0.5731,1.4919 -0.041,0.25674 -0.074,0.25267 -1.3519,-0.17725 -1.3021,-0.43796 -3.1614,-1.29481 -3.7145,-1.71204 l -0.2889,-0.21807 0.6822,-0.44804 c 0.8325,-0.54621 1.381,-0.74104 2.0836,-0.74104 z" /></g></svg>
