<?xml version="1.0" encoding="UTF-8" standalone="no"?>
<!-- Created with Inkscape (http://www.inkscape.org/) -->

<svg
   width="97.896347mm"
   height="86.146233mm"
   viewBox="0 0 97.896347 86.146233"
   version="1.1"
   id="svg1"
   xml:space="preserve"
   xmlns="http://www.w3.org/2000/svg"
   xmlns:svg="http://www.w3.org/2000/svg"><defs
     id="defs1" /><g
     id="layer1"
     transform="translate(4299.5372,160.95713)"><path
       id="path872"
       style="fill:#000000;stroke:none;stroke-width:0.344076"
       d="m -4244.4892,-160.9571 c -0.09,-0.001 -0.1541,0.0435 -0.2181,0.12247 -0.289,0.35626 -0.3252,0.68092 -0.3152,3.20963 0,2.02957 0.033,2.66378 0.1705,3.83232 0.07,0.59186 0.127,1.02931 0.1783,1.34204 -0.1299,0.32131 -0.368,0.98093 -0.6165,1.71307 l -0.6155,1.81229 0.4196,0.9524 c 0.353,0.8013 0.4374,1.08008 0.5354,1.76268 0.3842,2.68852 1.1336,5.15926 2.5166,8.29407 0.9648,2.18692 1.2888,3.05675 1.3018,3.48971 0.01,0.33982 -0.01,0.3779 -0.3266,0.66559 -0.7206,0.6522 -1.7446,1.01211 -2.9063,1.02371 -1.1767,0.0108 -2.2409,-0.40909 -3.1254,-1.23351 -1.3392,-1.24821 -1.8002,-2.69343 -2.5885,-8.11062 -0.5068,-3.48215 -0.8288,-4.83596 -1.928,-8.1101 -0.5567,-1.6583 -0.6869,-1.95088 -0.8124,-1.82159 -0.028,0.0287 -0.3377,0.84318 -0.6883,1.80971 l -0.6377,1.75699 0.525,1.5751 c 0.5851,1.75616 0.8806,2.9998 1.1033,4.6421 0.4871,3.59297 0.3734,5.27201 -0.4821,7.10499 -0.6378,1.36628 -1.4355,2.21445 -2.6448,2.81223 -1.0213,0.50484 -1.8184,0.68912 -2.9874,0.68988 -1.4726,0.001 -2.3493,-0.30335 -3.1394,-1.09141 -0.7284,-0.72656 -1.0618,-1.57877 -1.2206,-3.12229 -0.1098,-1.06664 -0.036,-1.88812 0.4486,-4.99246 0.5272,-3.38167 0.6112,-4.08529 0.6222,-5.16092 0.01,-0.76722 -0.018,-1.02824 -0.1261,-1.30793 -0.1442,-0.37373 -0.4211,-0.64596 -0.6568,-0.64596 -0.8025,0 -2.0609,1.63424 -3.066,3.98115 -0.667,1.55733 -0.9789,2.67562 -2.0366,7.2993 -0.6959,3.04239 -1.0717,4.1057 -1.6872,4.77335 -0.4104,0.44524 -0.7559,0.60868 -1.2811,0.60668 -0.8749,-0.003 -1.5585,-0.55852 -2.1249,-1.72599 -0.4196,-0.86483 -0.6056,-1.65827 -0.7136,-3.04322 -0.1054,-1.35212 -0.027,-2.88868 0.2816,-5.49476 0.1678,-1.42095 0.1896,-1.7681 0.1126,-1.8433 -0.3198,-0.31455 -0.9163,1.71135 -1.2397,4.2106 -0.1612,1.2421 -0.1827,4.14205 -0.039,5.12165 0.1858,1.26437 0.5003,2.3144 0.986,3.29179 0.399,0.80286 0.5332,0.99638 1.0516,1.51722 0.3268,0.32841 0.7455,0.66894 0.9301,0.75654 1.4094,0.66879 2.8991,-0.0149 3.7151,-1.7048 0.4621,-0.95679 0.7072,-1.8556 1.2996,-4.76612 0.8034,-3.9473 1.234,-5.53957 1.8516,-6.84661 0.2769,-0.5858 0.7295,-1.19373 0.8893,-1.19373 0.1081,0 0.024,0.70087 -0.2806,2.33216 -0.5285,2.83137 -0.7403,4.7672 -0.6583,5.99912 0.2559,3.8237 1.7274,6.15434 4.331,6.86056 h 5e-4 c 0.7656,0.20767 2.3038,0.16003 3.314,-0.10284 1.773,-0.46136 3.1321,-1.48828 4.1228,-3.11453 0.6401,-1.05056 1.2899,-2.64783 1.5792,-3.88297 0.072,-0.30689 0.1496,-0.55936 0.1747,-0.57103 h 5e-4 l 5e-4,-5.1e-4 h 5e-4 5e-4 l 5e-4,5.1e-4 c 2e-4,1e-4 0,3.9e-4 0,5.2e-4 l 5e-4,5.2e-4 c 0.027,0.0238 0.1032,0.28519 0.1747,0.60099 0.5908,2.62835 1.9424,4.63101 3.6969,5.47771 1.8897,0.91192 3.821,0.79756 5.2932,-0.31368 1.0002,-0.75495 1.9323,-2.52517 2.3094,-4.3863 0.173,-0.85351 0.1053,-2.57431 -0.1472,-3.75377 -0.2524,-1.17841 -0.3365,-1.45498 -1.6289,-5.36763 -0.6228,-1.88554 -1.1537,-3.53356 -1.1797,-3.66231 l -0.048,-0.2341 0.7602,0.32505 c 0.8956,0.38258 1.0185,0.39971 1.0185,0.14159 0,-0.28676 -0.39,-0.99343 -1.8293,-3.31607 -0.7286,-1.17592 -1.4132,-2.28425 -1.5214,-2.4629 0,-0.002 0,-0.004 0,-0.006 0.018,-0.21973 0.029,-0.48939 0.033,-0.80099 0.01,-0.89128 0.1883,-2.48912 0.3065,-2.74867 0.05,-0.10943 0.1427,-0.19895 0.2067,-0.19895 0.064,0 0.5093,0.40629 0.9891,0.90278 5.2686,5.45156 9.4948,12.01594 11.3486,18.67742 0.6629,2.38207 0.807,3.40247 0.817,5.63583 0,1.84465 -0.044,2.21755 -0.4826,3.68453 -0.5076,1.69748 -1.2349,3.23744 -2.6397,5.59036 -0.9071,1.51937 -1.2577,2.20519 -1.2578,2.46031 h -5e-4 c -1e-4,0.2643 0.1295,0.19868 0.6573,-0.33176 1.0859,-1.09126 2.2367,-2.69046 2.9167,-4.05402 0.9512,-1.90753 1.6528,-4.30943 1.9637,-6.7231 0.1582,-1.2237 0.1354,-5.64618 -0.035,-6.96392 -1.1642,-8.99326 -6.0565,-16.7065 -13.7733,-22.84408 -0.7241,-0.57587 -1.0486,-0.80104 -1.2469,-0.80357 z m -6.9826,29.84159 c 0,0.004 0.01,0.008 0.011,0.0119 -2e-4,-0.004 -8e-4,-0.008 0,-0.0119 z m 0.011,0.0119 c 0.064,1.05422 0.1419,2.60692 0.2041,3.65611 0.5016,8.45276 0.5352,9.12908 0.5121,10.53889 l -0.022,1.34307 -0.4077,0.35709 c -0.9406,0.82495 -2.8007,1.69951 -3.8737,2.1208 l -0.3638,0.14263 -0.2072,-0.41031 c -0.5219,-1.03395 -2.07,-2.74287 -3.1057,-3.42822 -0.9321,-0.61669 -1.8711,-0.88459 -2.6169,-0.74672 -1.4663,0.27107 -2.9455,1.98591 -3.5109,4.069 -0.1876,0.69117 -0.2605,2.04418 -0.1411,2.61896 0.258,1.24128 1.1465,2.15469 2.3792,2.44533 1.0803,0.2547 4.0976,-0.039 5.7428,-0.55862 0.3133,-0.099 0.5784,-0.16995 0.5901,-0.15762 0.1059,0.11798 0.6536,1.32753 0.8093,1.78749 l 0.1979,0.5855 -0.3984,0.52503 c -2.5187,3.3197 -10.6145,9.976534 -16.3122,10.458274 -2.7093,0.2291 -4.8405,-0.819536 -5.8405,-2.873726 -0.5401,-1.1094 -0.7292,-2.306688 -0.6692,-4.227648 0.028,-0.90411 0.097,-1.61778 0.2568,-2.5275 1.4352,-0.31851 2.8306,-0.71839 4.098,-1.17408 0.01,0.0901 0.014,0.17513 0.021,0.25528 0.2015,2.40335 0.4083,5.18892 0.4594,6.19032 0.051,1.001411 0.1141,1.913054 0.1395,2.025714 0.099,0.43726 0.2906,0.192642 0.572,-0.728638 0.5796,-1.897696 0.8312,-3.460716 0.8341,-5.176946 4e-4,-0.23493 -0.076,-1.44695 -0.2062,-3.29954 1.4178,-0.64271 2.5563,-1.35392 3.2355,-2.07998 1.0194,-1.08984 1.7606,-3.64163 1.6505,-5.68285 -0.088,-1.63806 -0.5442,-2.96225 -1.5498,-4.50309 -0.4429,-0.67859 -1.035,-1.36722 -1.112,-1.29242 -0.03,0.0292 -0.3593,0.77355 -0.7313,1.65364 l -0.6759,1.5999 0.4269,0.55708 c 1.1151,1.455 2.2458,3.53065 2.2458,4.12274 0,0.43188 -0.1239,0.59537 -0.7999,1.05523 -0.7074,0.48124 -1.7156,0.96369 -2.9172,1.4149 -0.067,-0.90685 -0.1389,-1.88147 -0.216,-2.90576 0,-2.2e-4 0.01,-8.5e-4 0.01,-0.001 l -0.4078,-5.25033 -0.4082,-5.25084 0.3814,-1.11466 0.3818,-1.11466 -0.7973,-1.70584 c -0.4383,-0.93819 -0.8369,-1.81895 -0.8852,-1.95751 -0.048,-0.13855 -0.141,-0.25218 -0.2057,-0.25218 v 5.2e-4 c -0.1094,0 -0.286,0.38242 -1.216,2.63395 -0.3433,0.83115 -0.3503,0.86989 -0.218,1.1839 0.4377,1.03879 0.4664,1.29915 1.3875,12.6597 0.01,0.10963 0.018,0.21954 0.027,0.32969 0.01,-5.2e-4 0.021,-10e-4 0.031,-0.002 0.1,1.21872 0.1931,2.36089 0.2764,3.37447 -1.8993,0.57541 -4.0737,1.05855 -6.2342,1.36012 -1.5548,0.21722 -5.6323,0.21838 -6.7795,0.002 -2.495,-0.47042 -4.2571,-1.64376 -5.0942,-3.39308 -0.3617,-0.75578 -0.5101,-1.45295 -0.5101,-2.41587 0,-0.95362 0.087,-1.50752 0.4331,-2.70681 0.278,-0.96334 0.3076,-1.2299 0.1359,-1.2299 -0.1833,0 -0.3722,0.26 -0.694,0.95653 -0.5883,1.27333 -0.9897,3.28298 -0.9901,4.95732 -6e-4,2.60827 0.8334,4.66437 2.3921,5.89783 1.2884,1.01952 2.8995,1.57775 5.0643,1.75493 v -5.1e-4 c 0.2121,0.0173 0.8718,0.0385 1.466,0.0465 1.9434,0.0269 4.1084,-0.21091 6.2213,-0.63303 -0.073,0.33721 -0.1413,0.69002 -0.2015,1.04955 -0.417,2.48856 -0.3701,4.990282 0.1271,6.802682 0.7371,2.68698 2.8187,4.793739 5.208,5.270479 2.534,0.50564 7.644,-1.332627 11.6509,-4.379577 2.5536,-1.94176 5.6687,-4.985544 6.7831,-6.626984 1.1437,-1.68476 1.5733,-4.15687 1.1291,-6.49883 -0.038,-0.1988 -0.062,-0.36711 -0.054,-0.38344 l 5e-4,-5.2e-4 5e-4,-5.1e-4 c 0.01,-0.006 0.2454,-0.16253 0.5235,-0.34675 0.9164,-0.60698 2.5645,-2.03067 3.1708,-3.22823 0.1256,-0.24812 0.3306,-0.73235 0.4548,-1.0759 0.1093,-0.30249 0.2136,-0.51917 0.2511,-0.52917 3e-4,-5e-5 8e-4,3e-5 0,0 h 5e-4 v 5.2e-4 h -5e-4 v 5.2e-4 5.1e-4 0.007 c 0.02,0.0573 0.1011,0.33796 0.1793,0.62425 0.5747,2.10379 1.7375,3.73472 3.0928,4.33823 1.2129,0.5401 2.6631,0.5038 4.1874,-0.0894 0.8694,-0.33834 1.4464,-0.72273 2.0779,-1.38441 0.316,-0.33118 0.7032,-0.73619 0.8604,-0.9002 0.1572,-0.16402 0.3312,-0.29817 0.387,-0.29817 0.073,0 0.1408,0.20079 0.244,0.72398 0.1983,1.00553 0.5602,1.73421 1.204,2.42363 1.2966,1.38835 3.0189,2.05847 5.5826,2.17196 0.8002,0.0354 1.7306,-0.009 2.7079,-0.11886 0.033,0.51158 0.064,0.99642 0.09,1.38338 0.1049,1.60156 0.2115,3.30617 0.3131,4.99039 h 0.015 c 0.3108,5.130058 0.5789,10.134947 0.6098,11.538317 0.04,1.80394 0.028,2.187387 -0.072,2.378667 -0.066,0.1254 -0.4085,0.459927 -0.7612,0.743107 -0.7706,0.61855 -1.1053,0.716369 -2.4645,0.720369 -2.4329,0.11902 -3.6987,-2.160636 -3.2204,-3.576526 0.017,-0.18418 0.088,-0.420614 0.2108,-0.710034 0.1228,-0.32626 0.184,-0.616925 0.184,-0.871265 0.053,-0.25786 0.017,-0.421799 -0.1054,-0.491959 -0.1105,-0.0877 -0.3106,-0.06133 -0.6,0.07906 -0.2176,0.18243 -0.7802,0.454938 -1.6888,0.818038 -0.8709,0.3631 -1.9594,0.780786 -3.2644,1.252636 -1.9428,0.66549 -8.5894,2.821423 -13.8348,3.046843 -1.6321,0.0666 -3.1373,-0.02731 -4.516,-0.281637 0.2911,-0.3245 0.7628,-0.7593 1.4154,-1.30483 0.6525,-0.5806 1.1058,-1.143772 1.3601,-1.689302 0.1017,-0.28943 0.2469,-0.633282 0.4346,-1.031462 0.1754,-0.4017 0.3565,-0.855777 0.5442,-1.362707 0.2193,-0.54201 0.3645,-1.085895 0.4346,-1.631425 0.07,-0.54552 0.07,-1.071775 0,-1.578715 -0.1754,-1.12262 -0.357,-1.992727 -0.5447,-2.610177 -0.1754,-0.65252 -0.357,-1.178785 -0.5447,-1.578715 -0.07,-0.15261 -0.1407,-0.334179 -0.2108,-0.544669 -0.065,-0.205244 -0.1583,-0.369184 -0.2811,-0.491964 -0.114,-0.17539 -0.2416,-0.20155 -0.3819,-0.0791 -0.1018,0.0719 -0.2464,0.27194 -0.4341,0.599972 -0.1807,0.32626 -0.5068,0.907063 -0.9787,1.742013 -0.435,0.79829 -0.9253,1.741228 -1.4708,2.828768 -0.5069,1.0528 -1.0332,2.231685 -1.5787,3.536735 -0.5087,1.26909 -0.9989,2.59313 -1.4707,3.97185 -8.4389,4.78818 -22.4217,4.377614 -28.1393,1.570964 -2.313,-1.20498 -4.1773,-3.455563 -5.0494,-7.368543 -0.314,-1.409 -0.5446,-2.988722 -0.7162,-4.525822 -0.1004,-1.06089 -0.2026,-2.062367 -0.3069,-3.107307 v -5.2e-4 -5.1e-4 c -0.028,-0.26076 -0.055,-0.51163 -0.082,-0.75293 -0.4948,-4.39931 -1.2079,-8.45788 -1.4857,-8.45788 -0.062,0.0113 -0.4079,0.73524 -0.8077,1.69188 l -0.7069,1.69137 0.2837,1.27486 c 0.3201,1.43754 0.5596,2.95061 0.8226,5.33146 -0.011,0.004 -0.023,0.009 -0.034,0.0134 0.089,0.862484 0.1812,1.77869 0.2738,2.75023 0.014,0.14851 0.028,0.298484 0.042,0.449584 v 5.17e-4 h 5e-4 c 0,8.51e-4 0.01,0.0017 0.012,0.0026 0.2036,2.44261 0.7136,6.925814 2.1053,9.633004 0.8714,1.56028 2.0684,2.883794 3.591,3.971334 7.4467,4.12575 15.9046,3.080452 23.9892,1.336352 1.2335,-0.29118 2.2853,-0.690413 3.1554,-1.197343 -0.079,0.25434 -0.2236,0.507571 -0.4341,0.760161 -0.1754,0.25785 -0.082,0.351796 0.2817,0.281636 0.3999,-0.11754 0.781,-0.211476 1.1441,-0.281636 0.3631,-0.12279 0.9624,-0.183969 1.7973,-0.183969 0.1176,0.39994 0.2814,0.963103 0.4919,1.689303 0.2543,0.72444 0.5807,1.449895 0.9788,2.176095 0.4,0.76303 0.8901,1.470864 1.4707,2.123384 0.5806,0.68936 1.2885,1.269646 2.1234,1.741496 0.6175,0.21927 1.3253,0.363922 2.1234,0.434082 0.835,0.0737 1.4703,-0.071 1.9053,-0.434082 0.1439,-0.25259 0.397,-0.651823 0.7601,-1.197343 0.3578,-0.50694 0.6305,-1.123309 0.8181,-1.849499 0.2105,-0.68761 0.3157,-1.448632 0.3157,-2.283582 0.039,-0.8332 -0.1231,-1.66775 -0.4862,-2.50269 3.7487,-0.36739 7.4362,-1.531032 11.0055,-2.709912 1.6696,-0.5806 3.1566,-1.269971 4.4617,-2.068091 -0.053,0.2175 -0.053,1.41254 0,1.99316 0.069,0.51321 0.5038,2.786364 2.5482,3.655074 0.597,0.25365 1.8865,0.304268 2.7569,0.161748 0.6215,-0.10177 0.634,-0.108794 1.1224,-0.617534 0.5897,-0.61422 1.4118,-1.748224 1.7555,-2.422074 0.1365,-0.26737 0.3667,-0.81437 0.5116,-1.21543 0.1265,-0.34982 0.2479,-0.602496 0.2904,-0.617016 h 5e-4 l 5e-4,-5.17e-4 h 6e-4 5e-4 5e-4 5e-4 5e-4 5e-4 l 6e-4,5.17e-4 h 5e-4 v 5.16e-4 h 5e-4 l 5e-4,5.17e-4 h 5e-4 5e-4 6e-4 5e-4 l 5e-4,5.17e-4 v 0.0078 c 0.021,0.0668 0.1403,0.482248 0.2651,0.923458 0.2824,0.99767 0.9541,2.357213 1.4976,3.030823 1.3689,1.69649 3.6481,2.338676 6.8047,1.917196 2.7175,-0.36286 6.1419,-1.30586 8.5737,-2.36058 3.318,-1.43908 6.8332,-3.622337 7.5623,-4.697387 0.1359,-0.20028 0.3896,-0.939362 0.7059,-2.056722 0.2716,-0.95917 0.4935,-1.770671 0.4935,-1.802991 0,-0.15996 -0.2676,9.96e-4 -0.9317,0.559656 -2.6173,2.20059 -5.9626,3.864376 -9.6775,4.814176 -1.8842,0.48172 -2.9782,0.419414 -4.2943,-0.244946 -1.464,-0.739 -3.4354,-2.902512 -4.2979,-4.717542 -0.6494,-1.36661 -0.9801,-3.199439 -0.7379,-4.088639 0.2761,-1.01354 2.3062,-1.951191 5.3991,-2.492871 2.4416,-0.42762 3.6276,-0.780413 5.0948,-1.513603 1.7618,-0.880407 2.9943,-2.033127 4.101,-3.838527 0.6985,-1.1395 1.4552,-2.88894 1.4552,-3.36258 0,-0.51134 -0.1936,-0.3949 -0.9963,0.59738 -0.9059,1.11984 -1.577,1.75681 -2.4923,2.36626 -1.4856,0.98919 -2.4125,1.29057 -5.4638,1.77612 -3.4295,0.5457 -5.1195,1.25153 -6.6926,2.79466 -1.8287,1.79397 -2.6655,3.845462 -2.6655,6.535002 0,2.69592 0.8977,5.063208 2.774,7.313248 0.2792,0.33493 0.4879,0.61284 0.4894,0.65009 v 5.17e-4 c 0,1.86e-4 0,4.35e-4 0,0.0015 v 5.17e-4 0.001 h -5e-4 l -5e-4,5.17e-4 h -6e-4 l -5e-4,0.001 h -5e-4 -5e-4 c -0.033,-2.6e-4 -0.4065,-0.05481 -0.8299,-0.120407 -1.6906,-0.26215 -2.5541,-0.725984 -3.2329,-1.736844 -1.0535,-1.56896 -1.3541,-3.629371 -1.9513,-13.3749 -0.079,-1.28794 -0.1606,-2.54042 -0.1943,-2.99 h -5e-4 c 0,-4.7e-4 -0.01,-9.2e-4 -0.01,-0.002 v -5.1e-4 c -0.014,-0.19604 -0.024,-0.33685 -0.03,-0.40463 -0.023,-0.26737 -0.097,-1.50714 -0.1654,-2.75487 -0.036,-0.66887 -0.073,-1.27705 -0.1096,-1.83503 1.4952,-0.30103 2.9513,-0.7204 4.0923,-1.20664 2.4029,-1.02407 3.8248,-2.29242 4.7263,-4.21629 1.281,-2.73365 0.8989,-5.3751 -1.0878,-7.52098 -1.3067,-1.41134 -3.4021,-2.4722 -5.181,-2.62258 -1.3121,-0.11092 -2.9839,0.7038 -5.1325,2.50062 -0.9866,0.82516 -1.8211,1.69555 -2.7942,2.91455 -1.2458,1.56057 -2.6575,3.793 -3.2453,5.13095 -0.154,0.35064 -0.3035,0.66254 -0.3317,0.6935 -0.094,0.10261 -0.9288,-0.61166 -1.231,-1.05316 -0.5769,-0.84308 -0.6853,-1.7158 -0.3343,-2.69183 0.2388,-0.66406 0.1995,-0.78755 -0.2517,-0.78755 -0.4067,0 -0.7279,0.20151 -1.3425,0.84284 -1.421,1.48266 -1.7361,1.72236 -2.8107,2.13683 -1.8348,0.70768 -3.5383,0.55869 -4.6437,-0.35244 -0.9146,-0.75393 -1.6184,-2.79814 -1.8117,-5.26428 -0.022,-0.28629 -0.1017,-1.25478 -0.1762,-2.1518 -0.1294,-1.55938 -0.2838,-3.77734 -0.4548,-6.5257 -0.1676,0.21038 -2.3086,-2.27566 -2.267,-2.80345 -0.026,-0.029 -0.052,-0.0581 -0.079,-0.0868 z m 25.9824,11.10837 c 0.4669,-2.1e-4 0.932,0.0863 1.4686,0.25993 1.4229,0.46051 2.7348,1.28667 3.7373,2.35231 0.529,0.56235 1.3648,1.72984 1.3648,1.90635 0,0.11979 -0.8916,0.83969 -1.7002,1.37304 -1.762,1.16224 -4.3126,2.12371 -6.7743,2.57452 -0.088,-0.94468 -0.1702,-1.73386 -0.2403,-2.54248 -0.1194,-1.3793 -0.2654,-2.71909 -0.4128,-3.85558 -0.1539,0.1066 -1.449,0.83436 -2.0733,1.65158 0.1154,1.04382 0.2927,2.93937 0.4408,4.99918 -1.0786,0.0512 -2.3407,0.0581 -2.8618,-0.002 -1.0352,-0.11854 -2.4097,-0.44032 -2.4097,-0.56431 0,-0.21411 1.5812,-2.644 2.3735,-3.64784 1.5203,-1.92619 3.8305,-3.67473 5.6079,-4.24367 0.5438,-0.17422 1.0125,-0.26127 1.4795,-0.26148 z m -55.9718,0.84181 c -0.1337,0.007 -0.281,0.28625 -0.9782,1.54616 -0.4157,0.75116 -0.8019,1.41774 -0.8589,1.48104 -0.082,0.0907 -0.402,-0.0638 -1.5115,-0.72863 -1.6491,-0.98827 -2.2438,-1.30999 -2.3058,-1.24799 -0.073,0.0729 -1.604,3.36395 -1.604,3.44785 0,0.0421 0.5839,0.40811 1.2975,0.81339 0.7136,0.40527 1.4617,0.83895 1.662,0.96377 0.2003,0.12483 0.4257,0.22896 0.5007,0.22996 0.083,0.002 0.4504,-0.56083 0.9359,-1.43144 0.4397,-0.78859 0.8349,-1.4904 0.8779,-1.5596 0.061,-0.0982 0.4885,0.11607 1.9519,0.97876 1.0305,0.60751 1.8958,1.10484 1.9218,1.10484 0.053,0 1.6872,-3.35621 1.6872,-3.46439 0,-0.0565 -2.824,-1.76789 -3.4271,-2.07688 -0.062,-0.0315 -0.1048,-0.0593 -0.1494,-0.0568 z m 20.0494,5.24516 c 0.799,0.004 1.6696,0.42777 2.5492,1.25057 0.4664,0.43631 0.4681,0.43942 0.2832,0.48886 -0.1024,0.0274 -0.5168,0.0828 -0.9214,0.1235 v 5.2e-4 c -0.8574,0.086 -2.1558,0.0837 -2.7781,-0.006 -0.5688,-0.0815 -1.1958,-0.31736 -1.1958,-0.44959 0,-0.35782 0.7056,-1.05294 1.2904,-1.27176 0.2481,-0.0928 0.5062,-0.13773 0.7725,-0.13642 z m 21.6147,10.73423 c -0.6521,0.004 -1.2465,0.66363 -1.7942,1.98024 -0.4973,1.854091 -0.8142,3.231823 -0.9477,4.162533 -0.055,0.16576 -0.096,0.25712 -0.1116,0.28112 0,0.0433 -0.025,0.0433 -0.061,0 0.01,-0.02496 -0.01,-0.115012 -0.047,-0.277502 -0.2486,-1.52946 -0.6991,-2.763229 -1.3441,-3.719151 -0.6341,-0.94845 -1.3547,-1.42176 -2.1725,-1.43196 h -5e-4 c -0.083,0.008 -0.2882,0.2858 -0.6191,0.83665 -0.328,0.55565 -0.4913,0.88051 -0.5013,0.97771 0.01,0.22006 0.2093,0.512114 0.5948,0.865584 0.4036,0.36071 0.7208,0.543817 0.955,0.533817 0.2235,0.0072 0.3534,-0.05045 0.3964,-0.158646 0.047,-0.11182 0.1437,-0.1626 0.295,-0.1726 0.2379,0.0072 0.6305,0.692233 1.171,2.077393 0.5548,1.38512 0.8244,2.31231 0.8144,2.78846 0.01,0.30684 0.065,0.451135 0.1732,0.451135 0.1405,0 0.2989,-0.166375 0.479,-0.505395 0.2631,-0.49059 0.4975,-1.334557 0.7137,-2.542997 0.4901,-2.76306 1.0233,-4.145301 1.589,-4.155301 0.2631,0.007 0.5187,0.17288 0.7638,0.50849 0.2487,0.3321 0.4007,0.50041 0.4687,0.49041 0.18,0.007 0.3312,-0.1946 0.4573,-0.60926 0.1042,-0.29936 0.1514,-0.54834 0.1514,-0.73949 0,-0.24529 -0.1444,-0.56264 -0.4361,-0.96325 -0.3315,-0.44363 -0.656,-0.67599 -0.9876,-0.67799 z m -17.619,6.93704 c 0.086,0.08073 0.1884,0.314535 0.3074,0.700733 0.1315,0.39818 0.2596,0.832969 0.3824,1.304829 0.088,0.47185 0.1572,0.925621 0.2099,1.360641 0.07,0.4052 0.1054,0.677708 0.1054,0.818038 0.1228,0.29469 0.1485,0.512343 0.079,0.652673 -0.07,0.11752 -0.1402,0.211477 -0.2103,0.281637 -0.2912,0.28943 -0.6727,0.598021 -1.1446,0.926041 -0.435,0.29118 -0.8698,0.581318 -1.3048,0.870748 -0.435,0.2596 -0.8343,0.459634 -1.1974,0.599964 -0.3579,0.14033 -0.6303,0.245583 -0.818,0.315743 0.037,-0.4701 0.2539,-1.08648 0.6521,-1.8495 0.2561,-0.58237 0.6017,-1.363206 1.0367,-2.341976 0.4712,-1.013381 1.1056,-2.226456 1.9022,-3.639571 z m -2.6081,13.465328 c 0.2894,0.0526 0.7237,0.114325 1.3043,0.184485 0.6174,0.10876 1.2528,0.29032 1.9053,0.54467 0.6876,0.25435 1.3401,0.562951 1.9575,0.926041 0.6525,0.39818 1.2328,0.869898 1.7415,1.415418 0.1403,0.25786 0.1403,0.457049 0,0.597379 v -0.03669 c -0.079,0.0649 -0.2236,0.158847 -0.4341,0.281637 -0.2175,0.11752 -0.4879,0.210949 -0.8124,0.281119 -0.2895,0.0702 -0.7076,0.0702 -1.2531,0 -0.5069,-0.0737 -1.0327,-0.255249 -1.5782,-0.544669 -0.6174,-0.3631 -1.1076,-0.78028 -1.4707,-1.25212 -0.3262,-0.43502 -0.6159,-0.816613 -0.8702,-1.144633 z m 19.9931,1.046965 -0.5623,0.995804 c -0.3092,0.54769 -0.7167,1.278324 -0.9054,1.623674 -0.1886,0.34535 -0.3561,0.627869 -0.3725,0.627869 -0.016,0 -0.4594,-0.259963 -0.985,-0.577743 -1.6243,-0.982 -2.6365,-1.536952 -2.7575,-1.512052 -0.133,0.0274 -1.6626,3.263376 -1.6257,3.439066 0.014,0.0639 0.7721,0.547924 1.6857,1.075904 0.9135,0.52799 1.7153,0.963933 1.7823,0.968933 0.078,0.006 0.4403,-0.563253 1,-1.567863 l 0.8785,-1.576131 0.4583,0.257865 c 0.2522,0.14177 1.1146,0.648496 1.9167,1.126546 0.802,0.47805 1.4838,0.843654 1.5146,0.812354 0.1151,-0.11621 1.6703,-3.459665 1.6356,-3.516065 -0.041,-0.066 -2.2941,-1.422038 -3.1238,-1.879988 z" /></g></svg>
