<?xml version="1.0" encoding="UTF-8" standalone="no"?>
<!-- Created with Inkscape (http://www.inkscape.org/) -->

<svg
   width="104.71996mm"
   height="71.707253mm"
   viewBox="0 0 104.71996 71.707253"
   version="1.1"
   id="svg1"
   xml:space="preserve"
   xmlns="http://www.w3.org/2000/svg"
   xmlns:svg="http://www.w3.org/2000/svg"><defs
     id="defs1" /><g
     id="layer1"
     transform="translate(3993.3117,287.97259)"><path
       id="path316"
       style="fill:#000000;stroke:none;stroke-width:0.306224"
       d="m -3923.7636,-287.9726 c -0.031,10e-4 -0.055,0.008 -0.074,0.0191 -0.1626,0.0991 -0.6557,1.19853 -1.3741,3.06389 -0.4836,1.25557 -0.4802,1.21544 -0.2981,3.75636 0.051,0.70424 0.1535,2.29826 0.2294,3.54242 0.028,0.46163 1.1416,10.69623 1.3208,13.02866 0.3229,4.20067 0.6019,7.92875 0.7318,9.83351 0.1138,1.6667 0.119,2.06932 0.026,2.13269 -0.063,0.043 -0.4271,0.23791 -0.8082,0.43305 -0.8245,0.42224 -1.5453,0.54879 -2.5037,0.44131 -1.3478,-0.15115 -2.2646,-0.72115 -3.0417,-1.89239 -0.281,-0.42356 -0.3399,-1.01284 -0.1731,-1.73219 0.1616,-0.69676 -0.2618,-0.73102 -0.7431,-0.0599 -0.1638,0.2284 -0.5361,0.79833 -0.8274,1.26556 -0.2914,0.46723 -0.7596,1.13873 -1.0407,1.49242 -1.0914,1.37339 -2.6284,2.08114 -3.9765,1.83192 -0.679,-0.12552 -1.0853,-0.44384 -1.4253,-1.11931 -0.3535,-0.70208 -0.3465,-1.32094 0.028,-2.4722 0.2518,-0.77379 0.2638,-0.86126 0.1318,-0.95963 -0.1149,-0.0856 -0.2121,-0.0804 -0.4676,0.0264 -0.4522,0.18893 -0.659,0.40317 -1.3798,1.42627 -2.315,3.28601 -3.3713,4.08048 -5.4441,4.09845 -1.8106,0.0157 -3.1135,-0.64596 -3.774,-1.91616 -0.2671,-0.51426 -0.2642,-1.37318 0.01,-2.43551 0.2339,-0.90799 0.1929,-1.03452 -0.2822,-0.87643 -0.5068,0.16866 -0.7817,0.39953 -2.45,2.05362 -1.0547,1.04581 -1.7997,1.70767 -2.1513,1.91151 -1.3444,0.7795 -2.7014,1.10461 -4.3609,1.04593 -0.9885,-0.035 -1.0811,-0.0546 -1.7162,-0.36845 -1.1757,-0.58108 -2.0393,-1.74455 -2.5115,-3.38222 -0.4925,-1.70813 -0.7218,-3.65758 -1.0423,-8.86975 -0.1615,-2.62629 -0.2494,-2.32108 -0.5441,-9.04182 -0.2319,-5.29027 -0.5338,-9.69031 -0.9457,-12.33568 -0.3076,-1.97515 -0.5138,-2.86246 -0.6713,-2.89078 v -5.2e-4 h -5e-4 c -0.094,10e-4 -0.3596,0.54102 -0.8708,1.7663 l -0.7467,1.78852 0.097,0.65474 c 0.4806,3.26241 0.9248,8.68506 1.1747,16.69821 0.052,1.67605 0.1331,3.81399 0.1798,4.75061 0.2069,4.15209 0.063,5.34478 -0.908,7.51169 -0.1293,0.28842 -0.2629,0.5629 -0.4041,0.82889 -0.098,-1.8524 -0.4983,-3.42793 -1.2981,-5.21053 -0.5232,-1.16625 -2.0949,-3.66426 -3.2422,-5.15318 -2.1583,-2.80121 -4.3306,-5.25151 -5.9402,-7.17372 -0.033,0.0304 -0.066,0.0605 -0.1002,0.0909 -2.2095,-3.01856 -4.3868,-6.1097 -4.2871,-6.1097 0.023,0 0.3136,0.0571 0.6465,0.1266 1.0738,0.22436 1.839,0.26754 1.9688,0.11111 0.1499,-0.1806 0.1776,-0.15495 -2.2195,-2.07481 -2.8203,-2.25879 -4.4756,-3.49167 -4.6886,-3.49178 v 0 c -0.064,0.0101 -0.093,0.65559 -0.093,2.02055 v 2.02055 l 0.3328,0.17777 c 0.2302,0.12284 0.4701,0.39133 0.7772,0.87126 1.3657,2.13448 3.5393,5.35481 4.4767,6.63267 0.8294,1.13073 2.1172,2.85963 3.3554,4.50877 0.024,-0.0204 0.048,-0.041 0.072,-0.0615 3.7789,4.92001 6.7735,8.34069 7.6766,9.98906 0.6537,1.19335 1.28,2.68653 1.7203,4.08347 -0.5756,0.80084 -1.3052,1.61806 -2.3203,2.62981 -1.9239,1.91756 -3.7444,3.42698 -8.478,7.028 -2.8905,2.1989 -3.1818,2.43868 -3.1818,2.61948 h -5e-4 c 0,0.0647 0.068,0.1173 0.1509,0.1173 0.21,0 7.1321,-2.87972 8.229,-3.42356 2.7036,-1.34036 5.1467,-3.69444 6.6321,-6.38979 0.5624,-1.02058 1.4574,-3.22725 1.755,-4.32584 0.1103,-0.40707 0.2115,-0.72887 0.2247,-0.71571 0.013,0.0132 0.1269,0.52959 0.2522,1.14825 0.2937,1.45048 0.6674,2.58495 1.1896,3.61011 0.5428,1.06564 1.6368,2.17919 2.6417,2.68924 1.2823,0.65085 2.9802,0.73244 4.6891,0.22583 1.657,-0.49122 2.6074,-1.21912 4.3403,-3.32538 0.657,-0.79853 0.954,-1.04332 1.094,-0.9033 0.043,0.043 0.14,0.40527 0.216,0.80563 0.1919,1.01166 0.4416,1.69604 0.8201,2.24793 1.2793,1.86514 4.3472,2.23797 6.72,0.817 0.7242,-0.43373 1.7069,-1.4415 2.358,-2.41742 0.3093,-0.46349 0.5937,-0.85451 0.631,-0.86868 v -5.2e-4 c 0.039,0.004 0.1125,0.21988 0.1669,0.49403 0.221,1.1141 0.8403,1.99843 1.6935,2.41742 0.7148,0.35092 1.7127,0.34835 2.7771,-0.008 1.3243,-0.44332 2.2868,-1.33962 3.2571,-3.03341 0.3035,-0.52993 0.5856,-0.96428 0.6263,-0.96428 0.043,0.005 0.2395,0.33933 0.4383,0.74621 0.8125,1.66315 2.0335,2.50578 3.8111,2.62929 0.8747,0.0608 1.7214,-0.11783 2.4825,-0.52348 1.458,-0.77711 2.163,-1.9057 2.6877,-4.30516 0.3504,-1.60261 0.3255,-5.85214 -0.061,-10.55646 -0.071,-0.86267 -1.059,-13.87493 -1.1188,-14.87351 -0.1182,-1.97188 -0.2467,-3.94455 -0.2857,-4.38423 -0.092,-1.04311 -0.051,-1.0858 0.68,-0.70022 2.2472,1.18578 4.9766,3.53979 7.8435,6.76496 2.2031,2.47838 3.3568,4.12906 4.4653,6.38773 1.7241,3.51309 2.5002,6.77692 2.3906,10.05726 -0.042,1.25415 -0.2041,1.97535 -0.6847,3.04685 -0.7676,1.71153 -2.3942,3.65982 -4.5429,5.44153 -0.3879,0.32167 -0.762,0.61285 -1.2051,0.92655 -0.3538,-4.25529 -0.7426,-8.90019 -0.8005,-9.54102 -0.3194,-3.68628 -0.8255,-7.08897 -1.0542,-7.08897 v -0.003 h -5e-4 -5e-4 v -5.2e-4 l -5e-4,5.2e-4 c -0.074,0.0336 -0.4282,0.76751 -0.8542,1.77095 l -0.7514,1.77199 0.075,0.69918 c 0.2535,4.65819 0.7941,9.20068 1.2258,13.78314 -0.965,0.58396 -2.2187,1.31504 -3.9388,2.30528 -3.2248,1.85658 -3.8094,2.2251 -3.7341,2.35386 0.1296,0.22175 1.915,-0.0744 4.6343,-0.76894 1.3401,-0.34229 2.3983,-0.65517 3.2923,-0.99581 0.045,0.55827 0.087,1.11779 0.1251,1.67845 0.026,0.40759 0.058,0.90844 0.091,1.42937 -0.012,10e-4 -0.024,0.002 -0.036,0.004 0.3203,5.25646 0.6,10.46839 0.6315,11.90522 0.04,1.80394 0.028,2.18738 -0.072,2.37866 -0.066,0.1254 -0.4084,0.45993 -0.7612,0.74311 -0.7705,0.61855 -1.1052,0.71637 -2.4644,0.72037 -2.4329,0.11902 -3.6988,-2.16064 -3.2205,-3.57653 0.017,-0.18417 0.088,-0.42061 0.2108,-0.71003 0.1227,-0.32626 0.184,-0.61693 0.184,-0.87127 0.053,-0.25786 0.017,-0.4218 -0.1054,-0.49196 -0.1105,-0.0877 -0.3105,-0.0603 -0.6,0.0801 -0.2175,0.18242 -0.7801,0.45442 -1.6888,0.81752 -0.8709,0.3631 -1.9593,0.78079 -3.2644,1.25264 -5.6517,2.18594 -13.2255,2.19783 -17.7679,1.66243 -0.094,-0.011 -0.08,-0.0665 0.054,-0.25683 0.3091,-0.43811 0.6438,-1.16497 0.8722,-1.89239 0.2035,-0.64769 0.2189,-0.84868 0.215,-2.79828 0,-2.0589 -0.01,-2.13198 -0.354,-3.7791 -0.1926,-0.92406 -0.4492,-2.43021 -0.5694,-3.34605 -0.1771,-1.34812 -0.2735,-1.81246 -0.4248,-1.81694 -0.039,-0.001 -0.081,0.028 -0.1287,0.0796 -0.1294,0.1393 -1.5863,3.72846 -2.3285,5.73608 -0.9133,2.47008 -1.631,5.06643 -1.7999,6.5102 -0.035,0.29503 -0.1098,0.59758 -0.1669,0.67231 -0.1286,0.16821 -1.7663,0.4875 -2.9037,0.56586 -2.1625,0.14893 -5.2088,-0.46951 -7.8636,-1.5968 -1.8777,-0.7973 -2.6283,-1.30124 -3.915,-2.62775 -0.4203,-0.43339 -0.804,-0.76356 -0.8522,-0.7338 -0.048,0.0298 -0.1341,0.23944 -0.1912,0.46612 l -0.1039,0.41237 -0.5844,-0.1881 c -1.6797,-0.54029 -4.2214,-0.19106 -6.5578,0.90124 -1.9146,0.89514 -3.6186,2.12827 -6.5618,4.74958 -4.506,4.0131 -6.9743,5.71021 -9.0703,6.2358 -2.2696,0.56911 -3.6241,-0.29517 -4.2633,-2.71922 -0.2361,-0.89775 -0.2348,-3.51116 0,-4.52685 0.4628,-1.97757 1.5511,-4.31968 2.9972,-6.45129 0.4373,-0.64449 0.7953,-1.23165 0.7953,-1.30431 0,-0.53365 -1.1549,0.59585 -2.1058,2.05982 -1.0269,1.58107 -1.8683,3.53153 -2.3569,5.4622 -0.2283,0.90185 -0.2484,1.12903 -0.2455,2.84685 0,1.7087 0.024,1.94799 0.2491,2.8236 0.4071,1.58029 1.3586,3.36645 2.2329,4.192 0.4539,0.42858 1.4414,0.93138 2.0831,1.06091 1.1273,0.22752 2.1044,-0.0193 3.5378,-0.894 1.6065,-0.98037 2.7468,-1.89192 6.8812,-5.50096 2.5734,-2.24647 3.9932,-3.2584 5.949,-4.23953 2.1012,-1.05409 4.2569,-1.38503 5.8162,-0.89349 l 0.5235,0.16485 0.047,1.27021 c 0.037,1.00237 0.098,1.44329 0.292,2.09134 0.6022,2.0164 1.6296,3.32242 3.2034,4.07417 0.5634,0.26914 1.6897,0.61342 1.7642,0.53899 0.02,-0.0201 0.1656,-0.67341 0.3225,-1.45107 0.2435,-1.20593 0.2808,-1.57958 0.2563,-2.54042 -0.025,-0.96822 -0.01,-1.11978 0.1111,-1.07952 0.7927,0.26502 2.5246,0.74733 3.2489,0.90486 1.398,0.30419 4.1215,0.35103 5.4255,0.0935 0.5357,-0.10565 0.9847,-0.18173 0.9979,-0.16847 l 5e-4,5.2e-4 5e-4,5.2e-4 c 0.011,0.0226 -0.013,0.19666 -0.055,0.39429 -0.043,0.20395 -0.1069,0.53373 -0.1416,0.73329 l -0.063,0.36277 0.5529,-0.062 0.553,-0.062 0.2496,1.05317 c 0.8886,3.74791 3.1292,6.36952 6.1252,7.167 0.9318,0.24783 2.2681,0.21287 2.9166,-0.0765 1.3379,-0.59679 2.0757,-1.98841 2.1875,-4.12481 0.1069,-2.04154 -0.2915,-3.19669 -1.5586,-4.51652 5.5857,-0.13861 11.2608,-1.20925 16.1137,-4.09639 -0.053,0.2175 -0.053,1.41254 0,1.99316 0.07,0.51321 0.5037,2.78636 2.5482,3.65507 0.5969,0.25365 1.8865,0.30427 2.7569,0.16175 0.6216,-0.10177 0.6341,-0.1088 1.1225,-0.61753 0.5897,-0.61423 1.4116,-1.74823 1.7554,-2.42208 0.1364,-0.26737 0.3666,-0.81437 0.5116,-1.21543 0.1264,-0.34982 0.2479,-0.60249 0.2904,-0.61701 h 5e-4 l 6e-4,-5.2e-4 h 5e-4 5e-4 5e-4 5e-4 5e-4 6e-4 l 5e-4,5.2e-4 h 5e-4 v 5.1e-4 h 5e-4 5e-4 v 5.2e-4 h 5e-4 6e-4 5e-4 5e-4 l 5e-4,5.2e-4 5e-4,5.1e-4 v 5.2e-4 5.2e-4 c 2e-4,0.002 -5e-4,0.004 -5e-4,0.006 0.021,0.0668 0.1402,0.48276 0.2651,0.92397 0.2823,0.99767 0.954,2.3567 1.4976,3.03031 1.3688,1.69649 3.6482,2.33919 6.8047,1.91771 2.7176,-0.36286 6.1419,-1.30586 8.5737,-2.36058 3.318,-1.43908 6.8331,-3.62234 7.5623,-4.69739 0.1358,-0.20028 0.3896,-0.93936 0.7059,-2.05672 0.2716,-0.95917 0.4935,-1.77067 0.4935,-1.80299 0,-0.15996 -0.2677,8.1e-4 -0.9317,0.55914 -2.6174,2.20059 -5.9625,3.86489 -9.6775,4.81469 -1.8841,0.48172 -2.9782,0.41942 -4.2943,-0.24494 -1.4639,-0.739 -3.4355,-2.90303 -4.2979,-4.71806 -0.6495,-1.36661 -0.98,-3.19944 -0.7379,-4.08864 0.2761,-1.01354 2.3063,-1.95119 5.3991,-2.49287 2.4416,-0.42762 3.6276,-0.7799 5.0948,-1.51309 1.7618,-0.8804 2.9943,-2.03364 4.101,-3.83904 0.6985,-1.13949 1.4552,-2.88843 1.4552,-3.36207 0,-0.19933 -0.03,-0.3033 -0.1131,-0.29714 -0.131,0.011 -0.3942,0.29062 -0.8827,0.89452 -0.9059,1.11984 -1.577,1.75681 -2.4923,2.36626 -1.4857,0.98919 -2.4124,1.29057 -5.4638,1.77612 -3.4294,0.5457 -5.1195,1.25153 -6.6926,2.79466 -1.8288,1.79397 -2.6654,3.84495 -2.6654,6.53449 0,2.69592 0.8977,5.06321 2.7739,7.31325 0.2793,0.33493 0.4879,0.61335 0.4894,0.6506 v 5.2e-4 c 0,3e-4 1e-4,9e-4 0,0.002 v 5.2e-4 10e-4 h -5e-4 l -5e-4,5.2e-4 h -5e-4 l -5e-4,10e-4 h -6e-4 -5e-4 c -0.033,-2.6e-4 -0.4065,-0.0548 -0.8299,-0.1204 -1.6907,-0.26215 -2.5541,-0.72599 -3.2329,-1.73685 -0.8781,-1.30774 -1.233,-2.95685 -1.6727,-9.11314 0.01,-0.001 0.02,-0.002 0.03,-0.004 -0.022,-0.32937 -0.04,-0.56503 -0.048,-0.65939 -0.023,-0.26737 -0.097,-1.50714 -0.1654,-2.75487 -0.07,-1.29512 -0.1271,-1.5622 -0.1974,-2.47789 0,-0.0739 -0.011,-0.17207 -0.015,-0.24236 -0.042,-0.52732 -0.1648,-2.02664 -0.3219,-3.92483 0.6609,-0.42446 1.2726,-0.9239 1.9394,-1.54926 0.7895,-0.7405 1.8518,-1.967 2.3704,-2.7373 1.1066,-1.64358 2.0005,-3.97053 2.5419,-6.61716 0.2634,-1.28818 0.3952,-5.27586 0.2285,-6.91431 -0.4996,-4.9082 -2.1598,-9.12 -5.1139,-12.97492 -0.9852,-1.2856 -3.9948,-4.42263 -5.3728,-5.59966 -2.7147,-2.31868 -5.7449,-4.37991 -6.3717,-4.35529 z m -12.1155,5.2865 c -0.8957,0 -1.6544,0.36216 -2.3482,1.12137 -1.6924,1.85177 -1.9076,4.01265 -0.5902,5.92781 l 0.4455,0.6475 -1.5477,0.78859 c -3.0842,1.57238 -4.7046,2.82924 -8.5726,6.64765 -1.5085,1.48915 -3.0954,2.97516 -3.5264,3.30264 -2.2399,1.70189 -4.079,2.19059 -5.5278,1.46865 -1.2346,-0.61522 -1.8433,-1.88535 -1.9508,-4.07211 -0.1483,-3.01599 0.823,-5.9104 3.1589,-9.41544 0.5442,-0.81664 0.9891,-1.53305 0.9891,-1.59215 0,-0.32588 -0.339,-0.21386 -0.7906,0.26096 -1.2942,1.3604 -3.0587,4.62296 -3.6975,6.8368 -0.7398,2.5635 -0.7997,5.18482 -0.1622,7.0807 0.6664,1.98136 2.0739,3.5791 3.6488,4.14135 0.9823,0.35067 2.5216,0.26448 3.483,-0.19482 0.9788,-0.46761 2.2932,-1.615 3.853,-3.36362 1.8773,-2.10443 4.3995,-4.49288 5.8229,-5.51439 1.3104,-0.94047 4.5395,-2.61438 6.0782,-3.15071 l 0.9302,-0.32402 0.6878,1.17151 c 0.3782,0.64435 0.753,1.14888 0.833,1.12138 0.1696,-0.0582 0.1353,-0.62089 -0.1095,-1.79834 -0.096,-0.46137 -0.1656,-0.84851 -0.1556,-0.86041 0.01,-0.0119 1.1942,-0.33931 2.6309,-0.72761 l 2.6122,-0.7059 0.5447,-1.7539 c 0.2996,-0.96467 0.545,-1.89231 0.555,-2.06137 0.018,-0.53559 -2.608,-2.93909 -4.3724,-4.00182 -0.8905,-0.53632 -2.2139,-0.9803 -2.9217,-0.9803 z m -1.1287,3.80803 c 0.9678,-0.0282 2.2377,0.44014 3.3244,1.26142 0.4587,0.34665 0.8125,0.68458 0.7865,0.75138 -0.026,0.0668 -0.813,0.34 -1.7482,0.60668 -0.9353,0.26669 -1.767,0.48638 -1.849,0.48938 -0.1738,0.006 -1.5434,-1.65435 -1.7637,-2.13786 -0.1899,-0.41687 -0.016,-0.65558 0.6346,-0.87023 0.1851,-0.0611 0.3921,-0.0943 0.6154,-0.10077 z m -45.5543,21.17545 c -0.6521,0.004 -1.2471,0.66375 -1.7947,1.98024 -0.4972,1.85394 -0.8138,3.23195 -0.9472,4.16254 -0.054,0.16575 -0.098,0.25712 -0.1122,0.28112 0,0.0433 -0.025,0.0433 -0.061,0 0.01,-0.0249 -0.01,-0.11574 -0.047,-0.27802 -0.2486,-1.52934 -0.6986,-2.76281 -1.3436,-3.71863 -0.6339,-0.94836 -1.3547,-1.42176 -2.1724,-1.43196 h -6e-4 c -0.083,0.008 -0.2882,0.28584 -0.619,0.83664 -0.328,0.55558 -0.4913,0.88052 -0.5013,0.97772 0.01,0.22006 0.2093,0.51215 0.5948,0.86558 0.4036,0.36073 0.7207,0.54382 0.955,0.53382 0.2234,0.007 0.3533,-0.0505 0.3963,-0.15865 0.047,-0.1118 0.1438,-0.1626 0.2951,-0.1726 0.2378,0.007 0.6305,0.69231 1.171,2.0774 0.5548,1.38498 0.8244,2.31179 0.8144,2.78794 0.01,0.30679 0.064,0.45113 0.1726,0.45113 0.1405,0 0.299,-0.16586 0.4791,-0.50487 0.2631,-0.49055 0.4974,-1.33466 0.7136,-2.543 0.4901,-2.76288 1.0234,-4.1473 1.5891,-4.1553 0.263,0.007 0.5187,0.17293 0.7637,0.50849 0.2486,0.33208 0.3997,0.49893 0.4687,0.49093 0.18,0.007 0.3314,-0.19516 0.4574,-0.60978 0.1043,-0.29934 0.1514,-0.54836 0.1514,-0.73949 0,-0.24529 -0.1445,-0.56216 -0.4362,-0.96273 -0.3314,-0.44355 -0.6555,-0.67452 -0.987,-0.67852 z m 36.6526,19.95124 h 5e-4 5e-4 5e-4 5e-4 c 0.3037,-0.002 1.2523,3.8754 1.1359,4.65191 -0.1257,0.83796 -0.7803,1.481 -2.2123,2.17403 -0.4293,0.20777 -0.8807,0.40823 -1.0035,0.44545 -0.2214,0.0671 -0.2233,0.0628 -0.1597,-0.43305 0.1323,-1.03112 0.6313,-3.31315 0.9033,-4.13204 0.285,-0.85793 1.186,-2.68801 1.3322,-2.70578 z m -0.3737,13.30617 h 6e-4 c 0.3096,2.9e-4 1.6407,0.3985 2.3957,0.72398 1.1267,0.48573 2.1413,1.13403 2.9156,1.86449 1.0619,1.0018 1.49,1.75951 1.1095,1.96319 -0.2505,0.13405 -1.0433,0.11629 -1.7617,-0.0398 -1.179,-0.25619 -2.5282,-1.19253 -3.4628,-2.40398 -0.5361,-0.69479 -1.3244,-2.02514 -1.248,-2.10013 l 5e-4,-5.2e-4 h 5e-4 v -5.2e-4 h 5e-4 l 6e-4,-5.1e-4 h 5e-4 5e-4 5e-4 5e-4 c 0.011,-0.004 0.026,-0.006 0.047,-0.006 z m 19.0345,1.53737 -0.5622,0.9958 c -0.3092,0.54769 -0.7163,1.27833 -0.9049,1.62368 -0.1887,0.34535 -0.3561,0.62787 -0.3725,0.62787 -0.016,0 -0.4599,-0.25997 -0.9855,-0.57775 -1.6243,-0.982 -2.636,-1.53696 -2.7569,-1.51205 -0.1331,0.0274 -1.6632,3.26338 -1.6263,3.43907 0.014,0.0639 0.7722,0.54791 1.6857,1.0759 0.9135,0.52798 1.7153,0.96392 1.7823,0.96893 0.077,0.006 0.4401,-0.56325 0.9999,-1.56786 l 0.8785,-1.57613 0.4584,0.25787 c 0.2522,0.14177 1.1146,0.64849 1.9167,1.12654 0.802,0.47805 1.4838,0.84367 1.5146,0.81236 0.1152,-0.11621 1.6703,-3.45967 1.6356,-3.51607 -0.041,-0.066 -2.2937,-1.42204 -3.1233,-1.87999 z" /></g></svg>
